<svg width="2386" height="681" viewBox="0 0 2386 681" fill="none" xmlns="http://www.w3.org/2000/svg">
<path d="M1215.64 389.72C1218.76 389.72 1221.16 391.16 1222.84 394.04C1224.76 396.92 1225.72 400.88 1225.72 405.92C1225.72 415.28 1223.44 422.72 1218.88 428.24C1195.12 457.28 1169.8 471.8 1142.92 471.8C1119.64 471.8 1101.04 462.8 1087.12 444.8C1073.2 426.8 1066.24 401 1066.24 367.4C1066.24 359.24 1066.6 351.08 1067.32 342.92C1051.48 345.8 1034.2 347.96 1015.48 349.4C1003 350.36 994.48 350.96 989.92 351.2C985.12 375.68 978.4 405.68 969.76 441.2C964.72 462.08 955.12 472.52 940.96 472.52C925.6 472.52 917.92 465.56 917.92 451.64C917.92 448.52 918.52 444.2 919.72 438.68C927.88 405.8 934.36 377.96 939.16 355.16L921.88 355.88C913.96 355.88 908.2 354.56 904.6 351.92C901 349.04 899.2 344.48 899.2 338.24C899.2 330.32 901.48 324.56 906.04 320.96C910.6 317.12 918.16 314.96 928.72 314.48L947.8 313.76C954.04 279.92 957.16 254.12 957.16 236.36C957.16 225.08 955.48 217.4 952.12 213.32C948.76 209.24 944.32 207.2 938.8 207.2C922 207.2 903.04 221.24 881.92 249.32C878.8 253.4 875.32 255.44 871.48 255.44C868.12 255.44 865.24 253.88 862.84 250.76C860.44 247.64 859.24 243.68 859.24 238.88C859.24 231.44 862.24 223.52 868.24 215.12C878.8 200.48 892.12 188.48 908.2 179.12C924.28 169.52 940.6 164.72 957.16 164.72C972.76 164.72 984.76 170.12 993.16 180.92C1001.8 191.48 1006.12 208.04 1006.12 230.6C1006.12 250.52 1003.24 277.52 997.48 311.6L1032.76 309.8C1047.88 309.08 1060.84 307.88 1071.64 306.2C1075.96 279.8 1082.56 255.08 1091.44 232.04C1100.32 209 1111.36 190.28 1124.56 175.88C1137.76 161.48 1152.52 154.28 1168.84 154.28C1180.84 154.28 1190.32 159.08 1197.28 168.68C1204.24 178.04 1207.72 190.4 1207.72 205.76C1207.72 265.28 1177.36 306.56 1116.64 329.6C1115.92 339.2 1115.56 349.16 1115.56 359.48C1115.56 384.68 1118.68 402.56 1124.92 413.12C1131.16 423.68 1139.92 428.96 1151.2 428.96C1161.04 428.96 1170.04 426.44 1178.2 421.4C1186.36 416.12 1195.6 407.24 1205.92 394.76C1208.8 391.4 1212.04 389.72 1215.64 389.72ZM1167.04 185.6C1161.76 185.6 1156.12 190.4 1150.12 200C1144.36 209.6 1138.84 222.68 1133.56 239.24C1128.28 255.8 1124.08 273.92 1120.96 293.6C1140.16 285.68 1154.32 274.4 1163.44 259.76C1172.56 245.12 1177.12 226.28 1177.12 203.24C1177.12 197.72 1176.16 193.4 1174.24 190.28C1172.32 187.16 1169.92 185.6 1167.04 185.6ZM1240.86 471.8C1225.98 471.8 1214.1 466.4 1205.22 455.6C1196.34 444.8 1191.9 430.64 1191.9 413.12C1191.9 393.92 1196.34 375.8 1205.22 358.76C1214.1 341.48 1225.86 327.68 1240.5 317.36C1255.38 306.8 1271.1 301.52 1287.66 301.52C1292.94 301.52 1296.42 302.6 1298.1 304.76C1300.02 306.68 1301.58 310.28 1302.78 315.56C1307.82 314.6 1313.1 314.12 1318.62 314.12C1330.38 314.12 1336.26 318.32 1336.26 326.72C1336.26 331.76 1334.46 343.76 1330.86 362.72C1325.34 390.32 1322.58 409.52 1322.58 420.32C1322.58 423.92 1323.42 426.8 1325.1 428.96C1327.02 431.12 1329.42 432.2 1332.3 432.2C1336.86 432.2 1342.38 429.32 1348.86 423.56C1355.34 417.56 1364.1 407.96 1375.14 394.76C1378.02 391.4 1381.26 389.72 1384.86 389.72C1387.98 389.72 1390.38 391.16 1392.06 394.04C1393.98 396.92 1394.94 400.88 1394.94 405.92C1394.94 415.52 1392.66 422.96 1388.1 428.24C1378.26 440.48 1367.82 450.8 1356.78 459.2C1345.74 467.6 1335.06 471.8 1324.74 471.8C1316.82 471.8 1309.5 469.16 1302.78 463.88C1296.3 458.36 1291.38 450.92 1288.02 441.56C1275.54 461.72 1259.82 471.8 1240.86 471.8ZM1253.82 435.44C1259.1 435.44 1264.14 432.32 1268.94 426.08C1273.74 419.84 1277.22 411.56 1279.38 401.24L1292.7 335C1282.62 335.24 1273.26 339.08 1264.62 346.52C1256.22 353.72 1249.5 363.32 1244.46 375.32C1239.42 387.32 1236.9 400.04 1236.9 413.48C1236.9 420.92 1238.34 426.44 1241.22 430.04C1244.34 433.64 1248.54 435.44 1253.82 435.44ZM1432.64 479.72C1420.16 479.72 1410.56 476.84 1403.84 471.08C1397.36 465.32 1394.12 458.84 1394.12 451.64C1394.12 445.4 1396.4 440 1400.96 435.44C1405.52 430.88 1412.24 428.6 1421.12 428.6C1424.24 428.6 1427.84 428.96 1431.92 429.68C1436.24 430.16 1439.48 430.52 1441.64 430.76C1441.4 424.52 1439.96 418.64 1437.32 413.12C1434.92 407.6 1431.8 402.32 1427.96 397.28C1424.12 392 1420.52 387.44 1417.16 383.6C1409.72 397.76 1402.28 409.52 1394.84 418.88C1387.64 428.24 1379.72 437.12 1371.08 445.52C1366.76 449.84 1362.2 452 1357.4 452C1353.56 452 1350.44 450.68 1348.04 448.04C1345.64 445.16 1344.44 441.68 1344.44 437.6C1344.44 432.8 1346.12 428.36 1349.48 424.28L1354.16 418.52C1367.36 402.2 1377.32 388.76 1384.04 378.2C1388.12 371.24 1392.92 362 1398.44 350.48C1403.96 338.72 1409.36 326.6 1414.64 314.12C1419.2 303.56 1428.68 298.28 1443.08 298.28C1449.8 298.28 1454.48 298.88 1457.12 300.08C1459.76 301.28 1461.08 303.2 1461.08 305.84C1461.08 307.28 1460.6 309.56 1459.64 312.68C1458.68 315.8 1457.36 318.92 1455.68 322.04C1451.36 330.68 1449.2 338 1449.2 344C1449.2 347.6 1450.4 351.56 1452.8 355.88C1455.44 360.2 1459.4 365.6 1464.68 372.08C1472.36 382.16 1478.12 390.8 1481.96 398C1486.04 404.96 1488.08 412.64 1488.08 421.04C1488.08 423.44 1487.84 426.8 1487.36 431.12C1499.12 426.56 1512.92 414.44 1528.76 394.76C1531.64 391.4 1534.88 389.72 1538.48 389.72C1541.6 389.72 1544 391.16 1545.68 394.04C1547.6 396.92 1548.56 400.88 1548.56 405.92C1548.56 415.04 1546.28 422.48 1541.72 428.24C1529.72 443.12 1518.2 453.32 1507.16 458.84C1496.36 464.12 1482.92 467 1466.84 467.48C1457.24 475.64 1445.84 479.72 1432.64 479.72ZM1719.11 389.72C1722.23 389.72 1724.63 391.16 1726.31 394.04C1728.23 396.92 1729.19 400.88 1729.19 405.92C1729.19 415.52 1726.91 422.96 1722.35 428.24C1711.31 440.96 1699.91 451.4 1688.15 459.56C1676.63 467.72 1663.43 471.8 1648.55 471.8C1636.31 471.8 1627.07 468.32 1620.83 461.36C1614.59 454.16 1611.47 443.84 1611.47 430.4C1611.47 423.68 1613.15 411.68 1616.51 394.4C1619.63 379.28 1621.19 368.84 1621.19 363.08C1621.19 359.24 1619.87 357.32 1617.23 357.32C1614.11 357.32 1609.67 361.4 1603.91 369.56C1598.15 377.48 1592.39 388.04 1586.63 401.24C1580.87 414.44 1576.19 428.36 1572.59 443C1568.03 462.2 1556.75 471.8 1538.75 471.8C1531.55 471.8 1526.75 469.28 1524.35 464.24C1522.19 458.96 1521.11 449.6 1521.11 436.16C1521.11 428.48 1521.23 422.36 1521.47 417.8L1521.83 389C1521.83 352.04 1525.55 313.52 1532.99 273.44C1540.67 233.36 1551.83 199.76 1566.47 172.64C1581.35 145.28 1599.11 131.6 1619.75 131.6C1630.79 131.6 1639.67 136.4 1646.39 146C1653.35 155.36 1656.83 167.6 1656.83 182.72C1656.83 206.96 1649.75 232.16 1635.59 258.32C1621.43 284.24 1598.39 314.6 1566.47 349.4C1565.75 361.88 1565.39 374.72 1565.39 387.92C1573.31 367.52 1582.07 350.96 1591.67 338.24C1601.51 325.28 1611.11 316.04 1620.47 310.52C1630.07 305 1638.83 302.24 1646.75 302.24C1662.35 302.24 1670.15 310.04 1670.15 325.64C1670.15 335 1667.51 351.92 1662.23 376.4C1657.67 397.28 1655.39 411.08 1655.39 417.8C1655.39 427.4 1658.87 432.2 1665.83 432.2C1670.63 432.2 1676.27 429.32 1682.75 423.56C1689.47 417.56 1698.35 407.96 1709.39 394.76C1712.27 391.4 1715.51 389.72 1719.11 389.72ZM1612.19 167.24C1607.87 167.24 1603.07 173.48 1597.79 185.96C1592.51 198.2 1587.35 214.88 1582.31 236C1577.51 256.88 1573.55 279.68 1570.43 304.4C1585.31 286.88 1597.55 267.8 1607.15 247.16C1616.99 226.52 1621.91 207.8 1621.91 191C1621.91 183.32 1621.07 177.44 1619.39 173.36C1617.71 169.28 1615.31 167.24 1612.19 167.24ZM1800.45 472.88C1768.53 472.88 1742.97 466.88 1723.77 454.88C1704.57 442.64 1694.97 424.04 1694.97 399.08C1694.97 385.88 1697.25 375.8 1701.81 368.84C1706.37 361.88 1713.09 358.4 1721.97 358.4C1728.45 358.4 1733.73 360.08 1737.81 363.44C1741.89 366.8 1743.93 371.12 1743.93 376.4C1743.93 381.2 1743.57 385.4 1742.85 389C1742.85 389.96 1742.61 391.64 1742.13 394.04C1741.89 396.44 1741.77 398.96 1741.77 401.6C1741.77 412.4 1747.17 420.44 1757.97 425.72C1769.01 431 1784.37 433.64 1804.05 433.64C1824.45 433.64 1840.41 430.04 1851.93 422.84C1863.45 415.4 1869.21 405.08 1869.21 391.88C1869.21 383.72 1866.57 376.76 1861.29 371C1856.01 365 1849.41 360.08 1841.49 356.24C1833.57 352.16 1822.41 347.24 1808.01 341.48C1789.53 334.28 1774.41 327.44 1762.65 320.96C1751.13 314.48 1741.17 305.72 1732.77 294.68C1724.61 283.4 1720.53 269.48 1720.53 252.92C1720.53 235.64 1725.09 220.28 1734.21 206.84C1743.57 193.4 1756.89 182.96 1774.17 175.52C1791.69 168.08 1812.21 164.36 1835.73 164.36C1853.25 164.36 1869.33 167 1883.97 172.28C1898.61 177.32 1910.25 185.12 1918.89 195.68C1927.77 206.24 1932.21 219.2 1932.21 234.56C1932.21 249.68 1929.93 261.08 1925.37 268.76C1920.81 276.44 1914.09 280.28 1905.21 280.28C1898.97 280.28 1893.69 278.36 1889.37 274.52C1885.29 270.68 1883.25 266.12 1883.25 260.84C1883.25 256.28 1883.61 252.08 1884.33 248.24C1885.05 241.04 1885.41 236.48 1885.41 234.56C1885.41 224.48 1880.49 216.8 1870.65 211.52C1860.81 206.24 1848.57 203.6 1833.93 203.6C1813.29 203.6 1797.45 207.44 1786.41 215.12C1775.61 222.56 1770.21 233.12 1770.21 246.8C1770.21 255.92 1772.97 263.72 1778.49 270.2C1784.25 276.68 1791.33 282.08 1799.73 286.4C1808.13 290.72 1819.89 295.88 1835.01 301.88C1853.25 309.32 1867.89 316.04 1878.93 322.04C1889.97 328.04 1899.33 336.2 1907.01 346.52C1914.93 356.84 1918.89 369.56 1918.89 384.68C1918.89 413 1908.09 434.84 1886.49 450.2C1865.13 465.32 1836.45 472.88 1800.45 472.88ZM1995.03 278.48C1984.95 278.48 1977.39 276.2 1972.35 271.64C1967.31 266.84 1964.79 260.24 1964.79 251.84C1964.79 243.44 1968.03 236.48 1974.51 230.96C1981.23 225.2 1989.51 222.32 1999.35 222.32C2008.23 222.32 2015.43 224.48 2020.95 228.8C2026.47 233.12 2029.23 239.24 2029.23 247.16C2029.23 256.76 2026.11 264.44 2019.87 270.2C2013.63 275.72 2005.35 278.48 1995.03 278.48ZM1992.15 471.8C1976.55 471.8 1965.15 466.28 1957.95 455.24C1950.99 444.2 1947.51 429.56 1947.51 411.32C1947.51 400.52 1948.83 386.72 1951.47 369.92C1954.35 352.88 1957.95 337.04 1962.27 322.4C1964.43 314.72 1967.31 309.44 1970.91 306.56C1974.51 303.68 1980.27 302.24 1988.19 302.24C2000.43 302.24 2006.55 306.32 2006.55 314.48C2006.55 320.48 2004.27 334.4 1999.71 356.24C1993.95 382.64 1991.07 400.52 1991.07 409.88C1991.07 417.08 1992.03 422.6 1993.95 426.44C1995.87 430.28 1999.11 432.2 2003.67 432.2C2007.99 432.2 2013.39 429.2 2019.87 423.2C2026.35 417.2 2034.99 407.72 2045.79 394.76C2048.67 391.4 2051.91 389.72 2055.51 389.72C2058.63 389.72 2061.03 391.16 2062.71 394.04C2064.63 396.92 2065.59 400.88 2065.59 405.92C2065.59 415.52 2063.31 422.96 2058.75 428.24C2034.99 457.28 2012.79 471.8 1992.15 471.8ZM2220.78 390.44C2223.9 390.44 2226.3 392 2227.98 395.12C2229.9 398 2230.86 401.72 2230.86 406.28C2230.86 411.8 2230.02 416.12 2228.34 419.24C2226.66 422.36 2224.02 425.12 2220.42 427.52C2199.78 441.44 2184.66 451.76 2175.06 458.48L2152.02 473.96C2142.9 523.64 2130.9 562.64 2116.02 590.96C2101.38 619.52 2082.66 633.8 2059.86 633.8C2047.62 633.8 2037.66 629.96 2029.98 622.28C2022.3 614.84 2018.46 605 2018.46 592.76C2018.46 575.72 2025.18 557.36 2038.62 537.68C2052.06 518.24 2077.26 494.24 2114.22 465.68L2116.38 451.64C2112.3 458.12 2106.9 463.16 2100.18 466.76C2093.7 470.12 2087.22 471.8 2080.74 471.8C2065.86 471.8 2053.98 466.4 2045.1 455.6C2036.22 444.8 2031.78 430.64 2031.78 413.12C2031.78 393.92 2036.22 375.8 2045.1 358.76C2053.98 341.48 2065.74 327.68 2080.38 317.36C2095.26 306.8 2110.98 301.52 2127.54 301.52C2132.82 301.52 2136.3 302.6 2137.98 304.76C2139.9 306.68 2141.46 310.28 2142.66 315.56C2147.22 314.6 2152.5 314.12 2158.5 314.12C2164.5 314.12 2168.7 315.08 2171.1 317C2173.74 318.68 2175.06 322.16 2175.06 327.44C2175.06 330.32 2174.94 332.6 2174.7 334.28C2173.74 341.72 2170.74 360.56 2165.7 390.8C2164.74 396.56 2163.66 402.92 2162.46 409.88C2161.5 416.6 2160.42 423.8 2159.22 431.48C2177.7 417.08 2195.46 404.36 2212.5 393.32C2215.62 391.4 2218.38 390.44 2220.78 390.44ZM2093.7 435.44C2099.22 435.44 2104.5 432.08 2109.54 425.36C2114.58 418.64 2118.18 409.04 2120.34 396.56L2131.86 335C2122.02 335.24 2112.9 339.08 2104.5 346.52C2096.1 353.72 2089.38 363.32 2084.34 375.32C2079.3 387.32 2076.78 400.04 2076.78 413.48C2076.78 420.92 2078.22 426.44 2081.1 430.04C2084.22 433.64 2088.42 435.44 2093.7 435.44ZM2063.82 598.88C2069.82 598.88 2076.54 591.68 2083.98 577.28C2091.66 562.88 2098.98 539.96 2105.94 508.52C2087.46 524.36 2074.14 538.64 2065.98 551.36C2057.82 564.08 2053.74 575.24 2053.74 584.84C2053.74 588.92 2054.46 592.28 2055.9 594.92C2057.58 597.56 2060.22 598.88 2063.82 598.88ZM2230.42 471.8C2221.3 471.8 2214.82 467 2210.98 457.4C2207.38 447.8 2205.58 432.44 2205.58 411.32C2205.58 380.12 2210.02 350.48 2218.9 322.4C2221.06 315.44 2224.54 310.4 2229.34 307.28C2234.38 303.92 2241.34 302.24 2250.22 302.24C2255.02 302.24 2258.38 302.84 2260.3 304.04C2262.22 305.24 2263.18 307.52 2263.18 310.88C2263.18 314.72 2261.38 323.36 2257.78 336.8C2255.38 346.4 2253.46 354.8 2252.02 362C2250.58 369.2 2249.38 378.08 2248.42 388.64C2256.34 368 2265.22 351.2 2275.06 338.24C2284.9 325.28 2294.5 316.04 2303.86 310.52C2313.46 305 2322.22 302.24 2330.14 302.24C2337.82 302.24 2343.58 304.28 2347.42 308.36C2351.5 312.2 2353.54 317.96 2353.54 325.64C2353.54 331.88 2352.22 343.64 2349.58 360.92C2347.18 375.56 2345.26 389.48 2343.82 402.68C2342.38 415.64 2341.66 430.16 2341.66 446.24C2341.66 455.36 2339.74 461.96 2335.9 466.04C2332.3 469.88 2326.3 471.8 2317.9 471.8C2309.98 471.8 2304.22 469.76 2300.62 465.68C2297.02 461.6 2295.22 455.48 2295.22 447.32C2295.22 437.72 2296.9 421.88 2300.26 399.8C2303.14 380.6 2304.58 368.36 2304.58 363.08C2304.58 359.24 2303.26 357.32 2300.62 357.32C2297.5 357.32 2293.06 361.4 2287.3 369.56C2281.78 377.48 2276.02 388.04 2270.02 401.24C2264.26 414.44 2259.58 428.36 2255.98 443C2253.34 454.28 2250.22 461.96 2246.62 466.04C2243.26 469.88 2237.86 471.8 2230.42 471.8Z" fill="black"/>
<path d="M39.2692 120.394L10 163.325M15.4454 208.3C17.6236 207.755 82.7812 105.108 115 54M98 148.5L160.43 37.2577M160.43 108.809L206.716 29.0804M221.691 68.6041L194.464 113.579M238.708 49.5237L248.919 37.2577M276.146 60.4268V60.4268C253.047 88.539 232.458 118.622 214.614 150.331L214.204 151.059M214.204 236L243 183.5L273.5 129.5L298 93.5M305.415 137.43L292.482 163.325M276.146 199.441L241.431 257.364L204.674 306.428M175.5 345.5L143 378.661L105.976 412.733M120.951 356.173C117.139 359.989 103.48 372.755 97.127 378.661M148.178 421.592L207.397 360.262L257.767 294.843L305.415 219.203M289.759 310.516V310.516C257.584 355.884 222.109 398.819 183.622 438.971L176.767 446.124M163.153 503.365L224.414 446.124L282.272 378.661L305.415 350.04M354.424 342.544L306.096 408.644M257.767 463.841L204.674 516.312L153.623 560.606M137.287 617.166C140.01 614.44 177.447 586.047 195.826 572.191M224.414 550.385L252.322 523.127M235.305 582.412L148.178 649.194M176.767 671L219.649 639.654M350.34 408.644L373.483 378.661M388.458 360.262L404.794 336.411M400.03 401.148C406.609 392.063 420.178 373.346 421.811 371.165C423.445 368.984 437.921 344.361 444.954 332.323M462.652 306.428L480.057 269.792C486.137 256.993 490.973 243.64 494.499 229.915V229.915C499.115 211.942 501.451 193.46 501.451 174.903V168.095M448.358 397.06L496.005 314.605L515.436 278.548C521.074 268.084 525.683 257.098 529.197 245.744L529.672 244.21C535.768 224.514 538.327 203.895 537.23 183.306V183.306C536.523 170.029 534.301 156.875 530.607 144.102L528.678 137.43L523.913 122.438M461 425.5L454.484 436M439 445L454.484 436M453.123 501.321V501.321C457.192 533.457 465.136 564.984 476.782 595.211L477.627 597.404M489.199 498.595V464.432C489.199 441.876 492.177 419.42 498.055 397.644V397.644C501.223 385.912 505.22 374.42 510.018 363.256L527.997 321.42L555.225 269.63M542.292 89.7289L549.934 102.845C557.503 115.835 563.099 129.878 566.539 144.513V144.513C568.522 152.95 569.778 161.541 570.294 170.193L572.242 202.848M561.351 57.701V57.701C573.572 74.0146 584.128 91.5121 592.859 109.931L598.788 122.438M587.897 33.8505L589.534 35.8281C601.582 50.3856 612.418 65.9058 621.931 82.233V82.233M616.486 15.4515L618.688 18.1287C629.903 31.7625 639.873 46.3747 648.478 61.7897V61.7897M656.646 10L679.238 45.8108C685.947 56.4452 691.765 67.6162 696.632 79.2098V79.2098C704.875 98.846 710.328 119.54 712.829 140.689L715.184 160.599V217.159M698.848 20.2216V20.2216C713.76 43.7465 725.573 69.0986 733.992 95.6489L734.924 98.5876M676.385 151.059L677.238 171.817C678.029 191.091 676.852 210.397 673.727 229.433V229.433C671.418 243.491 668.055 257.355 663.664 270.907L653.923 300.976M633.503 253.275L618.528 294.162L596.746 341.181M583.132 294.162L559.309 334.367L545.695 366.395L532.762 406.6M525.275 452.257V494.727C525.275 506.829 526.171 518.915 527.955 530.884L529.028 538.079C531.057 551.69 534.628 565.026 539.672 577.83V577.83C547.262 597.097 558.093 614.923 571.697 630.536L579.048 638.972L605.595 664.186M618.528 626.706L654.604 654.645M596.746 597.404L596.125 596.83C584.793 586.358 574.927 574.402 566.796 561.288V561.288M636.906 590.59L660.73 613.077L696.125 638.972M670.94 581.049L678.42 586.894C691.982 597.491 706.855 606.291 722.672 613.077V613.077M698.848 558.562L700.569 559.94C715.267 571.712 731.109 581.98 747.857 590.59V590.59M728.798 532.667L766.235 558.562M753.302 512.905L771 525.853M491.241 537.437L494.69 553.686C500.049 578.937 510.452 602.846 525.275 623.98V623.98L551.14 660.778M54 97L65 80M454.484 436V467.93M744 140.5V140.5C746.663 158.873 748 177.413 748 195.978V206.5M711.5 253.275L698 294.162" stroke="#EB1D36" stroke-width="20" stroke-linecap="round"/>
</svg>
