<svg width="308" height="112" viewBox="0 0 308 112" fill="none" xmlns="http://www.w3.org/2000/svg">
<path d="M83.1134 20.86C82.7401 20.86 82.3667 20.7666 82.0401 20.58C73.0801 15.96 65.3334 14 56.0001 14C46.8067 14 38.0334 16.1933 30.0534 20.58C28.9334 21.1866 27.5334 20.7666 26.8801 19.6466C26.589 19.1009 26.5237 18.4627 26.6983 17.8693C26.8728 17.2759 27.2732 16.7746 27.8134 16.4733C36.4934 11.6666 46.0134 9.33331 56.0001 9.33331C65.9867 9.33331 74.6667 11.5266 84.1867 16.3333C85.3534 17.0333 85.7734 18.4333 85.1667 19.5533C84.9868 19.9459 84.6973 20.278 84.333 20.5098C83.9687 20.7417 83.5452 20.8633 83.1134 20.86ZM16.3334 45.36C15.8667 45.36 15.4001 45.22 14.9801 44.94C14.4872 44.57 14.1545 44.0255 14.0504 43.418C13.9463 42.8106 14.0785 42.1863 14.4201 41.6733C19.0401 35.14 24.9201 30.0066 31.9201 26.4133C46.6667 18.8533 65.3334 18.8066 80.0334 26.3666C87.0334 29.96 92.9134 35 97.5334 41.5333C98.2801 42.56 98.0001 44.0533 96.9734 44.8C95.9001 45.5467 94.4534 45.3133 93.7067 44.3333C89.6496 38.498 84.2158 33.7534 77.8867 30.52C64.4934 23.66 47.3667 23.66 34.0201 30.5666C27.6734 33.8333 22.3534 38.5 18.1534 44.3333C17.7801 45.0333 17.0801 45.36 16.3334 45.36ZM45.5001 101.687C44.8934 101.687 44.3334 101.453 43.8667 100.987C39.8067 96.9266 37.6134 94.3133 34.4867 88.6667C31.2667 82.9267 29.5867 75.9267 29.5867 68.4133C29.5867 54.5533 41.4401 43.26 56.0001 43.26C70.5601 43.26 82.4134 54.5533 82.4134 68.4133C82.4134 69.0322 82.1676 69.6256 81.73 70.0632C81.2924 70.5008 80.6989 70.7466 80.0801 70.7466C79.4612 70.7466 78.8677 70.5008 78.4302 70.0632C77.9926 69.6256 77.7467 69.0322 77.7467 68.4133C77.7467 57.12 67.9934 47.9267 56.0001 47.9267C44.0067 47.9267 34.2534 57.12 34.2534 68.4133C34.2534 75.1333 35.7467 81.34 38.5934 86.3333C41.5801 91.7467 43.6334 94.0333 47.2267 97.6733C48.1134 98.6067 48.1134 100.053 47.2267 100.987C46.6667 101.453 46.1067 101.687 45.5001 101.687ZM78.9601 93.0533C73.4067 93.0533 68.5067 91.6533 64.4934 88.9C57.5401 84.1866 53.3867 76.5333 53.3867 68.4133C53.3867 67.7945 53.6326 67.201 54.0702 66.7634C54.5077 66.3258 55.1012 66.08 55.7201 66.08C56.3389 66.08 56.9324 66.3258 57.37 66.7634C57.8076 67.201 58.0534 67.7945 58.0534 68.4133C58.0534 74.9933 61.4134 81.2 67.1067 85.0266C70.4201 87.2666 74.2934 88.34 78.9601 88.34C80.0801 88.34 81.9467 88.2 83.8134 87.8733C85.0734 87.64 86.3334 88.48 86.5201 89.7867C86.7534 91 85.9134 92.26 84.6067 92.4933C81.9467 93.0067 79.6134 93.0533 78.9601 93.0533ZM69.5801 102.667H68.9734C61.5534 100.52 56.7001 97.7666 51.6134 92.7733C48.3864 89.5933 45.8281 85.7999 44.089 81.6164C42.3499 77.4329 41.4651 72.9438 41.4867 68.4133C41.4867 60.8533 47.9267 54.6933 55.8601 54.6933C63.7934 54.6933 70.2334 60.8533 70.2334 68.4133C70.2334 73.4067 74.6667 77.4667 79.9401 77.4667C85.3067 77.4667 89.6467 73.4067 89.6467 68.4133C89.6467 50.82 74.4801 36.54 55.8134 36.54C42.5601 36.54 30.3334 43.9133 24.9667 55.3466C23.1467 59.1266 22.2134 63.56 22.2134 68.4133C22.2134 72.0533 22.5401 77.7933 25.3401 85.26C25.8067 86.4733 25.2001 87.8267 23.9867 88.2467C23.4107 88.4542 22.7764 88.429 22.2187 88.1762C21.661 87.9235 21.2238 87.4633 21.0001 86.8933C18.6667 80.78 17.5934 74.6667 17.5934 68.4133C17.5934 62.8133 18.6667 57.7266 20.7667 53.2933C26.9734 40.2733 40.7401 31.8266 55.8134 31.8266C77.0001 31.8266 94.3134 48.2066 94.3134 68.3666C94.3134 75.9266 87.8734 82.0867 79.9401 82.0867C72.0067 82.0867 65.5667 75.9266 65.5667 68.3666C65.5667 63.3733 61.2267 59.3133 55.8601 59.3133C50.4934 59.3133 46.1534 63.3733 46.1534 68.3666C46.1534 76.3466 49.2334 83.8133 54.8801 89.4133C59.3134 93.8 63.5601 96.2267 70.1401 98C71.4001 98.3733 72.1001 99.68 71.7734 100.893C71.5401 101.967 70.5601 102.667 69.5801 102.667Z" fill="#EB1D36"/>
<path d="M121.463 70.5V42.0678H125.753V54.4236H139.928V42.0678H144.231V70.5H139.928V58.1025H125.753V70.5H121.463ZM156.351 70.972C155 70.972 153.778 70.7221 152.686 70.2223C151.594 69.7133 150.728 68.9775 150.09 68.015C149.461 67.0524 149.146 65.8724 149.146 64.4748C149.146 63.2716 149.377 62.2813 149.84 61.5039C150.303 60.7264 150.927 60.1109 151.714 59.6574C152.501 59.2039 153.38 58.8615 154.352 58.6301C155.324 58.3987 156.314 58.2229 157.323 58.1025C158.6 57.9545 159.637 57.8341 160.433 57.7416C161.229 57.6398 161.807 57.4778 162.168 57.2557C162.529 57.0336 162.709 56.6726 162.709 56.1728V56.0756C162.709 54.8632 162.367 53.9238 161.682 53.2574C161.006 52.591 159.998 52.2578 158.656 52.2578C157.258 52.2578 156.157 52.5679 155.352 53.188C154.556 53.7988 154.005 54.4791 153.699 55.2288L149.798 54.3403C150.261 53.0445 150.937 51.9987 151.825 51.2027C152.723 50.3975 153.755 49.8144 154.921 49.4535C156.087 49.0833 157.314 48.8982 158.6 48.8982C159.452 48.8982 160.354 49 161.307 49.2036C162.27 49.3979 163.168 49.7589 164.001 50.2864C164.843 50.814 165.532 51.5683 166.069 52.5494C166.606 53.5212 166.874 54.7845 166.874 56.3394V70.5H162.821V67.5846H162.654C162.386 68.1214 161.983 68.6489 161.446 69.1672C160.909 69.6855 160.22 70.1159 159.378 70.4584C158.535 70.8008 157.526 70.972 156.351 70.972ZM157.253 67.6401C158.401 67.6401 159.382 67.4134 160.197 66.9599C161.02 66.5063 161.645 65.914 162.071 65.1828C162.506 64.4424 162.723 63.6511 162.723 62.8089V60.06C162.575 60.2081 162.288 60.3469 161.863 60.4765C161.446 60.5968 160.969 60.7033 160.433 60.7958C159.896 60.8791 159.373 60.9578 158.864 61.0318C158.355 61.0966 157.929 61.1522 157.587 61.1984C156.781 61.3002 156.046 61.4715 155.379 61.7121C154.722 61.9527 154.195 62.2998 153.797 62.7533C153.408 63.1976 153.214 63.7899 153.214 64.5303C153.214 65.5577 153.593 66.3351 154.352 66.8627C155.111 67.381 156.078 67.6401 157.253 67.6401ZM188.382 54.3819L184.62 55.0483C184.463 54.567 184.213 54.1089 183.871 53.6739C183.537 53.2389 183.084 52.8826 182.51 52.6049C181.936 52.3272 181.219 52.1884 180.358 52.1884C179.183 52.1884 178.202 52.4522 177.415 52.9797C176.628 53.498 176.235 54.169 176.235 54.9928C176.235 55.7054 176.499 56.2792 177.026 56.7142C177.554 57.1492 178.405 57.5056 179.581 57.7832L182.968 58.5607C184.93 59.0142 186.393 59.713 187.355 60.657C188.318 61.601 188.799 62.8274 188.799 64.336C188.799 65.6132 188.429 66.7516 187.688 67.7512C186.957 68.7415 185.934 69.5189 184.62 70.0835C183.315 70.6481 181.802 70.9304 180.08 70.9304C177.693 70.9304 175.744 70.4213 174.236 69.4032C172.727 68.3759 171.802 66.9182 171.459 65.0301L175.471 64.4193C175.721 65.4651 176.235 66.2564 177.012 66.7933C177.79 67.3208 178.803 67.5846 180.053 67.5846C181.413 67.5846 182.501 67.3023 183.315 66.7377C184.13 66.1639 184.537 65.4651 184.537 64.6414C184.537 63.975 184.287 63.4151 183.787 62.9616C183.297 62.5081 182.542 62.1656 181.524 61.9342L177.915 61.1429C175.925 60.6894 174.453 59.9675 173.5 58.9772C172.556 57.9868 172.084 56.7328 172.084 55.2149C172.084 53.9562 172.436 52.8548 173.139 51.9108C173.842 50.9667 174.814 50.2309 176.054 49.7034C177.295 49.1666 178.715 48.8982 180.316 48.8982C182.621 48.8982 184.435 49.3979 185.759 50.3975C187.082 51.3878 187.957 52.716 188.382 54.3819ZM197.514 57.8388V70.5H193.363V42.0678H197.458V52.6465H197.722C198.222 51.4989 198.986 50.5872 200.013 49.9116C201.04 49.236 202.382 48.8982 204.039 48.8982C205.501 48.8982 206.779 49.199 207.871 49.8005C208.972 50.4021 209.824 51.2999 210.425 52.4938C211.036 53.6785 211.341 55.1594 211.341 56.9364V70.5H207.19V57.4362C207.19 55.872 206.788 54.6596 205.983 53.7988C205.177 52.9288 204.057 52.4938 202.623 52.4938C201.642 52.4938 200.763 52.7021 199.985 53.1186C199.217 53.5351 198.611 54.1459 198.166 54.9511C197.731 55.7471 197.514 56.7096 197.514 57.8388ZM243.067 49.5368C242.919 48.2225 242.308 47.2044 241.235 46.4825C240.161 45.7514 238.81 45.3858 237.181 45.3858C236.015 45.3858 235.006 45.5709 234.155 45.9411C233.303 46.302 232.641 46.8018 232.169 47.4404C231.706 48.0698 231.475 48.7871 231.475 49.5923C231.475 50.2679 231.632 50.851 231.947 51.3416C232.271 51.8321 232.692 52.2439 233.21 52.5771C233.738 52.9011 234.303 53.1741 234.904 53.3962C235.506 53.6091 236.084 53.7849 236.64 53.9238L239.416 54.6457C240.323 54.8678 241.253 55.1686 242.207 55.5481C243.16 55.9275 244.044 56.4273 244.858 57.0474C245.673 57.6675 246.33 58.4357 246.83 59.352C247.339 60.2683 247.593 61.365 247.593 62.6423C247.593 64.2527 247.177 65.6826 246.344 66.9321C245.52 68.1816 244.321 69.1672 242.748 69.8892C241.184 70.6111 239.291 70.972 237.07 70.972C234.941 70.972 233.099 70.6342 231.545 69.9586C229.99 69.2829 228.773 68.325 227.893 67.0848C227.014 65.8353 226.528 64.3545 226.436 62.6423H230.739C230.823 63.6696 231.156 64.5257 231.739 65.2106C232.331 65.8862 233.086 66.3907 234.002 66.7238C234.927 67.0478 235.941 67.2097 237.042 67.2097C238.255 67.2097 239.333 67.02 240.277 66.6405C241.23 66.2518 241.98 65.715 242.526 65.0301C243.072 64.336 243.345 63.5261 243.345 62.6006C243.345 61.7584 243.104 61.0689 242.623 60.5321C242.151 59.9952 241.508 59.551 240.693 59.1993C239.888 58.8476 238.977 58.5375 237.958 58.2691L234.599 57.3529C232.322 56.7328 230.517 55.8211 229.184 54.6179C227.861 53.4147 227.199 51.8228 227.199 49.8422C227.199 48.204 227.643 46.7741 228.532 45.5524C229.42 44.3307 230.624 43.382 232.141 42.7064C233.659 42.0215 235.372 41.679 237.278 41.679C239.203 41.679 240.902 42.0168 242.373 42.6925C243.854 43.3681 245.02 44.2983 245.872 45.483C246.723 46.6584 247.167 48.0096 247.204 49.5368H243.067ZM252.386 70.5V49.1758H256.537V70.5H252.386ZM254.483 45.8856C253.761 45.8856 253.141 45.6449 252.622 45.1636C252.113 44.6731 251.859 44.09 251.859 43.4144C251.859 42.7295 252.113 42.1464 252.622 41.6651C253.141 41.1746 253.761 40.9294 254.483 40.9294C255.205 40.9294 255.82 41.1746 256.329 41.6651C256.847 42.1464 257.106 42.7295 257.106 43.4144C257.106 44.09 256.847 44.6731 256.329 45.1636C255.82 45.6449 255.205 45.8856 254.483 45.8856ZM271.062 78.9408C269.369 78.9408 267.911 78.7187 266.689 78.2744C265.477 77.8302 264.486 77.2425 263.718 76.5113C262.95 75.7801 262.376 74.9796 261.997 74.1096L265.565 72.638C265.815 73.0452 266.148 73.4756 266.564 73.9291C266.99 74.3918 267.564 74.7852 268.286 75.1091C269.017 75.4331 269.956 75.595 271.104 75.595C272.677 75.595 273.978 75.2109 275.005 74.4428C276.032 73.6838 276.546 72.4714 276.546 70.8054V66.6128H276.282C276.032 67.0663 275.671 67.5707 275.199 68.126C274.737 68.6813 274.098 69.1626 273.284 69.5698C272.469 69.9771 271.409 70.1807 270.104 70.1807C268.42 70.1807 266.902 69.7873 265.551 69.0006C264.209 68.2047 263.144 67.0339 262.358 65.4883C261.58 63.9334 261.192 62.0222 261.192 59.7546C261.192 57.4871 261.576 55.5435 262.344 53.9238C263.121 52.3041 264.186 51.0639 265.537 50.2032C266.888 49.3332 268.42 48.8982 270.132 48.8982C271.456 48.8982 272.525 49.1203 273.339 49.5645C274.154 49.9995 274.788 50.5086 275.241 51.0917C275.704 51.6747 276.06 52.1884 276.31 52.6327H276.615V49.1758H280.683V70.972C280.683 72.8046 280.257 74.3086 279.406 75.484C278.554 76.6594 277.402 77.5294 275.949 78.094C274.505 78.6585 272.876 78.9408 271.062 78.9408ZM271.021 66.7377C272.215 66.7377 273.223 66.4601 274.047 65.9047C274.88 65.3402 275.509 64.535 275.935 63.4891C276.37 62.434 276.588 61.1707 276.588 59.6991C276.588 58.2645 276.375 57.0012 275.949 55.909C275.523 54.8169 274.899 53.9654 274.075 53.3546C273.251 52.7345 272.233 52.4244 271.021 52.4244C269.771 52.4244 268.73 52.7484 267.897 53.3962C267.064 54.0348 266.435 54.9048 266.009 56.0062C265.592 57.1076 265.384 58.3385 265.384 59.6991C265.384 61.0966 265.597 62.323 266.023 63.3781C266.449 64.4332 267.078 65.2569 267.911 65.8492C268.753 66.4416 269.79 66.7377 271.021 66.7377ZM290.401 57.8388V70.5H286.25V49.1758H290.235V52.6465H290.498C290.989 51.5174 291.757 50.6104 292.803 49.9255C293.858 49.2406 295.186 48.8982 296.787 48.8982C298.24 48.8982 299.513 49.2036 300.605 49.8144C301.697 50.416 302.544 51.3138 303.146 52.5077C303.747 53.7016 304.048 55.1779 304.048 56.9364V70.5H299.897V57.4362C299.897 55.8905 299.495 54.6827 298.689 53.8127C297.884 52.9335 296.778 52.4938 295.371 52.4938C294.409 52.4938 293.553 52.7021 292.803 53.1186C292.063 53.5351 291.475 54.1459 291.04 54.9511C290.614 55.7471 290.401 56.7096 290.401 57.8388Z" fill="white"/>
</svg>
