<svg width="48" height="48" viewBox="0 0 48 48" fill="none" xmlns="http://www.w3.org/2000/svg">
<rect width="48" height="48" rx="24" fill="#EB1D36"/>
<path d="M23.9577 7.9783C27.7122 7.9783 31.2543 8.78447 34.5838 10.3968C37.9133 12.0092 40.6938 14.3377 42.9253 17.3824C43.1733 17.7012 43.2533 17.9846 43.1655 18.2325C43.0776 18.4805 42.9268 18.693 42.7128 18.8701C42.4989 19.0472 42.2509 19.1273 41.969 19.1103C41.687 19.0933 41.4391 18.9424 41.2252 18.6576C39.277 15.8948 36.7714 13.7788 33.7082 12.3095C30.645 10.8403 27.3949 10.1049 23.9577 10.1035C20.5204 10.1021 17.2972 10.8374 14.2879 12.3095C11.2785 13.7816 8.78138 15.8976 6.79642 18.6576C6.58389 18.9764 6.33595 19.1535 6.05259 19.1889C5.76922 19.2243 5.52128 19.1535 5.30876 18.9764C5.06081 18.7993 4.90992 18.5782 4.85608 18.3133C4.80224 18.0484 4.88229 17.7735 5.09623 17.4887C7.2923 14.478 10.0466 12.1402 13.3591 10.4754C16.6717 8.81068 20.2045 7.9783 23.9577 7.9783ZM23.9577 12.9726C28.7394 12.9726 32.8482 14.5665 36.284 17.7544C39.7198 20.9422 41.4377 24.8916 41.4377 29.6025C41.4377 31.3735 40.8093 32.8527 39.5526 34.04C38.2959 35.2273 36.7636 35.8202 34.9557 35.8188C33.1479 35.8174 31.5986 35.2245 30.3078 34.04C29.0171 32.8555 28.3703 31.3764 28.3675 29.6025C28.3675 28.4336 27.934 27.4504 27.0669 26.6527C26.1998 25.855 25.1634 25.4569 23.9577 25.4583C22.7519 25.4597 21.7155 25.8586 20.8484 26.6548C19.9813 27.4511 19.5478 28.4336 19.5478 29.6025C19.5478 33.0383 20.5665 35.9074 22.6039 38.2097C24.6413 40.512 27.2709 42.1237 30.4927 43.0446C30.8115 43.1509 31.024 43.328 31.1303 43.5759C31.2366 43.8239 31.2543 44.0895 31.1834 44.3729C31.1126 44.6208 30.9709 44.8333 30.7584 45.0104C30.5459 45.1875 30.2802 45.2407 29.9614 45.1698C26.2777 44.2489 23.267 42.4155 20.9292 39.6697C18.5914 36.9239 17.4226 33.5682 17.4226 29.6025C17.4226 27.8315 18.0601 26.3438 19.3353 25.1395C20.6104 23.9352 22.1512 23.3331 23.9577 23.3331C25.7641 23.3331 27.3049 23.9352 28.58 25.1395C29.8552 26.3438 30.4927 27.8315 30.4927 29.6025C30.4927 30.7714 30.9355 31.7547 31.821 32.5523C32.7065 33.35 33.7514 33.7481 34.9557 33.7467C36.16 33.7453 37.1872 33.3472 38.0373 32.5523C38.8874 31.7575 39.3124 30.7742 39.3124 29.6025C39.3124 25.4937 37.8071 22.0402 34.7963 19.242C31.7856 16.4438 28.1904 15.0447 24.0108 15.0447C19.8312 15.0447 16.236 16.4438 13.2252 19.242C10.2145 22.0402 8.70912 25.476 8.70912 29.5494C8.70912 30.3995 8.78917 31.4621 8.94928 32.7372C9.10938 34.0124 9.48979 35.5 10.0905 37.2002C10.1968 37.519 10.1883 37.8024 10.065 38.0503C9.94176 38.2983 9.73774 38.4754 9.45295 38.5816C9.16817 38.6879 8.89402 38.6794 8.63049 38.5561C8.36696 38.4329 8.18065 38.2288 8.07156 37.9441C7.54025 36.5627 7.15983 35.1905 6.93031 33.8275C6.70078 32.4645 6.58531 31.0562 6.58389 29.6025C6.58389 24.8916 8.29329 20.9422 11.7121 17.7544C15.1309 14.5665 19.2127 12.9726 23.9577 12.9726ZM23.9577 2.77148C26.2246 2.77148 28.4383 3.04564 30.599 3.59395C32.7596 4.14226 34.8495 4.93072 36.8684 5.95933C37.1872 6.13643 37.3735 6.34896 37.4274 6.5969C37.4812 6.84484 37.4543 7.09279 37.3466 7.34073C37.2389 7.58867 37.0618 7.78349 36.8153 7.92517C36.5688 8.06685 36.2677 8.04914 35.9121 7.87204C34.0348 6.91568 32.0952 6.18106 30.0932 5.66817C28.0912 5.15528 26.046 4.89813 23.9577 4.89671C21.9033 4.89671 19.8843 5.13616 17.9007 5.61504C15.9172 6.09393 14.0222 6.84626 12.2158 7.87204C11.9324 8.04914 11.649 8.09377 11.3657 8.00593C11.0823 7.91808 10.8698 7.73177 10.7281 7.44699C10.5864 7.16221 10.551 6.90577 10.6218 6.67766C10.6927 6.44955 10.8698 6.24553 11.1531 6.06559C13.1367 5.00298 15.2088 4.1883 17.3694 3.62158C19.5301 3.05485 21.7262 2.77148 23.9577 2.77148ZM23.9577 18.1263C27.2518 18.1263 30.0854 19.2335 32.4586 21.448C34.8317 23.6625 36.0183 26.3807 36.0183 29.6025C36.0183 29.9213 35.9213 30.1785 35.7272 30.374C35.5331 30.5695 35.2759 30.6666 34.9557 30.6651C34.6724 30.6651 34.4244 30.5681 34.2119 30.374C33.9994 30.1799 33.8931 29.9227 33.8931 29.6025C33.8931 26.946 32.9098 24.7237 30.9433 22.9357C28.9767 21.1476 26.6482 20.2529 23.9577 20.2515C21.2671 20.2501 18.9563 21.1448 17.0252 22.9357C15.094 24.7265 14.1285 26.9488 14.1285 29.6025C14.1285 32.4716 14.6243 34.9071 15.6161 36.9091C16.6079 38.911 18.0601 40.9208 19.9728 42.9383C20.1854 43.1509 20.2916 43.3988 20.2916 43.6822C20.2916 43.9655 20.1854 44.2135 19.9728 44.426C19.7603 44.6385 19.5124 44.7448 19.229 44.7448C18.9457 44.7448 18.6977 44.6385 18.4852 44.426C16.3954 42.2299 14.793 39.9899 13.6779 37.706C12.5629 35.4221 12.0046 32.7209 12.0032 29.6025C12.0032 26.3793 13.1721 23.6604 15.5099 21.4459C17.8476 19.2314 20.6635 18.1249 23.9577 18.1263ZM23.9045 28.5399C24.2233 28.5399 24.4805 28.6462 24.676 28.8587C24.8715 29.0712 24.9686 29.3192 24.9671 29.6025C24.9671 32.2591 25.9235 34.4374 27.8362 36.1376C29.7489 37.8378 31.9804 38.6879 34.5307 38.6879C34.7432 38.6879 35.0443 38.6702 35.4339 38.6348C35.8235 38.5993 36.2309 38.5462 36.6559 38.4754C36.9747 38.4045 37.2496 38.4492 37.4805 38.6092C37.7114 38.7693 37.8616 39.0081 37.931 39.3255C38.0019 39.6088 37.9488 39.8568 37.7717 40.0693C37.5945 40.2818 37.3643 40.4235 37.081 40.4943C36.4434 40.6714 35.8859 40.7692 35.4084 40.7876C34.9309 40.806 34.6384 40.8145 34.5307 40.8131C31.3783 40.8131 28.6417 39.7505 26.3209 37.6253C24.0002 35.5 22.8405 32.8258 22.8419 29.6025C22.8419 29.3192 22.9397 29.0712 23.1352 28.8587C23.3307 28.6462 23.5872 28.5399 23.9045 28.5399Z" fill="white" fill-opacity="0.22"/>
<path d="M28.2857 15.4286C28.2857 17.1335 27.6084 18.7687 26.4028 19.9743C25.1972 21.1798 23.5621 21.8571 21.8571 21.8571C20.1522 21.8571 18.517 21.1798 17.3115 19.9743C16.1059 18.7687 15.4286 17.1335 15.4286 15.4286C15.4286 13.7236 16.1059 12.0885 17.3115 10.8829C18.517 9.67729 20.1522 9 21.8571 9C23.5621 9 25.1972 9.67729 26.4028 10.8829C27.6084 12.0885 28.2857 13.7236 28.2857 15.4286ZM9 32.5714C9 34.7143 11.1429 34.7143 11.1429 34.7143H22.4057C22.0417 33.6818 21.8562 32.5948 21.8571 31.5C21.8571 30.1221 22.1524 28.7601 22.7231 27.5059C23.2939 26.2517 24.1268 25.1344 25.1657 24.2293C24.1657 24.0793 23.0629 24.0029 21.8571 24C11.1429 24 9 30.4286 9 32.5714ZM30.1843 24.9857C30.57 23.6721 32.43 23.6721 32.8179 24.9857L32.91 25.3029C32.9676 25.4996 33.0685 25.6809 33.2053 25.8335C33.3422 25.9861 33.5115 26.106 33.7008 26.1846C33.8902 26.2631 34.0947 26.2982 34.2994 26.2873C34.504 26.2763 34.7037 26.2197 34.8836 26.1214L35.175 25.9629C36.3771 25.3071 37.6929 26.6229 37.0393 27.825L36.8786 28.1164C36.7807 28.2962 36.7244 28.4957 36.7137 28.7001C36.703 28.9045 36.7381 29.1087 36.8166 29.2978C36.8951 29.4869 37.015 29.6559 37.1673 29.7927C37.3197 29.9294 37.5007 30.0302 37.6971 30.0879L38.0164 30.1843C39.3279 30.57 39.3279 32.43 38.0164 32.8179L37.695 32.91C37.4986 32.968 37.3178 33.0693 37.1657 33.2064C37.0136 33.3434 36.8941 33.5128 36.816 33.7021C36.7379 33.8914 36.7032 34.0957 36.7144 34.3002C36.7256 34.5046 36.7824 34.704 36.8807 34.8836L37.0393 35.175C37.6929 36.3771 36.3771 37.6929 35.175 37.0393L34.8836 36.8786C34.7038 36.7807 34.5043 36.7244 34.2999 36.7137C34.0955 36.703 33.8913 36.7381 33.7022 36.8166C33.5131 36.8951 33.3441 37.015 33.2073 37.1673C33.0706 37.3197 32.9698 37.5007 32.9121 37.6971L32.8157 38.0164C32.43 39.3279 30.57 39.3279 30.1821 38.0164L30.09 37.695C30.032 37.4986 29.9307 37.3178 29.7936 37.1657C29.6566 37.0136 29.4872 36.8941 29.2979 36.816C29.1086 36.7379 28.9043 36.7032 28.6998 36.7144C28.4954 36.7256 28.296 36.7824 28.1164 36.8807L27.825 37.0393C26.6229 37.6929 25.3071 36.3771 25.9607 35.175L26.1214 34.8836C26.2193 34.7038 26.2756 34.5043 26.2863 34.2999C26.297 34.0955 26.2619 33.8913 26.1834 33.7022C26.1049 33.5131 25.985 33.3441 25.8327 33.2073C25.6803 33.0706 25.4993 32.9698 25.3029 32.9121L24.9857 32.8157C23.6721 32.43 23.6721 30.57 24.9857 30.1821L25.3029 30.09C25.4996 30.0324 25.6809 29.9315 25.8335 29.7947C25.9861 29.6578 26.106 29.4885 26.1846 29.2992C26.2631 29.1098 26.2982 28.9053 26.2873 28.7006C26.2763 28.4959 26.2197 28.2963 26.1214 28.1164L25.9629 27.825C25.3071 26.6229 26.6229 25.3071 27.825 25.9607L28.1164 26.1214C28.2962 26.2193 28.4957 26.2756 28.7001 26.2863C28.9045 26.297 29.1087 26.2619 29.2978 26.1834C29.4869 26.1049 29.6559 25.985 29.7927 25.8327C29.9294 25.6803 30.0302 25.4993 30.0879 25.3029L30.1843 24.9857ZM34.7143 31.5C34.7143 31.0779 34.6311 30.6599 34.4696 30.2699C34.3081 29.88 34.0713 29.5256 33.7728 29.2272C33.4744 28.9287 33.12 28.6919 32.7301 28.5304C32.3401 28.3689 31.9221 28.2857 31.5 28.2857C31.0779 28.2857 30.6599 28.3689 30.2699 28.5304C29.88 28.6919 29.5256 28.9287 29.2272 29.2272C28.9287 29.5256 28.6919 29.88 28.5304 30.2699C28.3689 30.6599 28.2857 31.0779 28.2857 31.5C28.2857 32.3525 28.6244 33.17 29.2272 33.7728C29.83 34.3756 30.6475 34.7143 31.5 34.7143C32.3525 34.7143 33.17 34.3756 33.7728 33.7728C34.3756 33.17 34.7143 32.3525 34.7143 31.5Z" fill="white"/>
</svg>
