<svg width="168" height="50" viewBox="0 0 168 50" fill="none" xmlns="http://www.w3.org/2000/svg">
<rect width="50" height="50" rx="12" fill="#EB1D36"/>
<path d="M6.55111 13.2158L5 15.4909M5.28858 17.8743C5.40401 17.8454 8.85701 12.4057 10.5644 9.69724M9.66352 14.7052L12.972 8.80999M12.972 12.6018L15.4249 8.37664M16.2185 10.4712L14.7756 12.8546M17.1203 9.46002L17.6614 8.80999M19.1043 10.0378V10.0378C17.8802 11.5276 16.789 13.1219 15.8434 14.8022L15.8217 14.8408M15.8217 19.3423L17.3477 16.56L18.9641 13.6983L20.2624 11.7905M20.6554 14.1186L19.97 15.4909M19.1043 17.4048L17.2646 20.4744L15.3167 23.0745M13.7706 25.1452L12.0483 26.9025L10.0862 28.7081M10.8798 25.7108C10.6778 25.913 9.95393 26.5895 9.61726 26.9025M12.3227 29.1776L15.461 25.9275L18.1303 22.4606L20.6554 18.4521M19.8257 23.2912V23.2912C18.1206 25.6955 16.2406 27.9708 14.201 30.0986L13.8377 30.4777M13.1163 33.5111L16.3628 30.4777L19.4289 26.9025L20.6554 25.3858M23.2526 24.9885L20.6915 28.4915M18.1303 31.4166L15.3167 34.1973L12.6113 36.5446M11.7455 39.542C11.8898 39.3975 13.8738 37.8928 14.8477 37.1585M16.3628 36.0029L17.8418 34.5584M16.9399 37.7002L12.3227 41.2393M13.8377 42.3949L16.1103 40.7337M23.0362 28.4915L24.2626 26.9025M25.0562 25.9275L25.922 24.6635M25.6694 28.0942C26.0181 27.6127 26.7372 26.6208 26.8238 26.5053C26.9103 26.3897 27.6775 25.0848 28.0502 24.4468M28.9881 23.0745L29.9105 21.1331C30.2327 20.4548 30.489 19.7471 30.6758 19.0198V19.0198C30.9204 18.0673 31.0442 17.0878 31.0442 16.1044V15.7436M28.2306 27.8776L30.7557 23.5079L31.7854 21.597C32.0842 21.0425 32.3284 20.4603 32.5146 19.8586L32.5398 19.7773C32.8628 18.7336 32.9985 17.6408 32.9403 16.5498V16.5498C32.9028 15.8461 32.7851 15.1491 32.5894 14.4722L32.4871 14.1186L32.2346 13.3241M28.9006 29.3847L28.5552 29.9412M27.7347 30.4181L28.5552 29.9412M28.4831 33.4028V33.4028C28.6987 35.1059 29.1197 36.7766 29.7369 38.3785L29.7817 38.4947M30.3949 33.2584V31.4479C30.3949 30.2526 30.5527 29.0625 30.8643 27.9085V27.9085C31.0321 27.2868 31.244 26.6778 31.4983 26.0861L32.451 23.869L33.8939 21.1245M33.2086 11.5907L33.6136 12.2858C34.0147 12.9742 34.3113 13.7183 34.4935 14.4939V14.4939C34.5986 14.9411 34.6652 15.3963 34.6926 15.8548L34.7958 17.5854M34.2186 9.89337V9.89337C34.8663 10.7579 35.4257 11.6852 35.8884 12.6613L36.2026 13.3241M35.6254 8.62943L35.7122 8.73423C36.3507 9.5057 36.9249 10.3282 37.429 11.1934V11.1934M37.1405 7.65438L37.2572 7.79626C37.8515 8.51877 38.3799 9.29314 38.8359 10.1101V10.1101M39.2687 7.36548L40.466 9.26325C40.8215 9.82682 41.1298 10.4188 41.3878 11.0332V11.0332C41.8246 12.0738 42.1136 13.1705 42.2461 14.2913L42.3709 15.3464V18.3438M41.5052 7.90717V7.90717C42.2955 9.15386 42.9215 10.4974 43.3677 11.9044L43.417 12.0601M40.3148 14.8408L40.36 15.9409C40.4019 16.9623 40.3396 17.9854 40.1739 18.9942V18.9942C40.0516 19.7392 39.8733 20.4739 39.6407 21.1922L39.1244 22.7856M38.0423 20.2577L37.2487 22.4245L36.0944 24.9163M35.3729 22.4245L34.1104 24.5552L33.3889 26.2525L32.7036 28.3831M32.3068 30.8027V33.0534C32.3068 33.6947 32.3542 34.3352 32.4488 34.9695L32.5057 35.3508C32.6132 36.0721 32.8024 36.7789 33.0697 37.4574V37.4574C33.4719 38.4785 34.046 39.4231 34.7669 40.2505L35.1565 40.6976L36.5633 42.0338M37.2487 40.0476L39.1605 41.5282M36.0944 38.4947L36.0614 38.4643C35.4609 37.9093 34.9381 37.2757 34.5072 36.5807V36.5807M38.2226 38.1336L39.4852 39.3253L41.3609 40.6976M40.0262 37.628L40.4227 37.9377C41.1413 38.4993 41.9296 38.9657 42.7677 39.3253V39.3253M41.5052 36.4363L41.5964 36.5093C42.3753 37.1332 43.2149 37.6773 44.1024 38.1336V38.1336M43.0924 35.064L45.0764 36.4363M44.391 34.0167L45.3289 34.7029M30.5031 35.3168L30.6859 36.1779C30.97 37.516 31.5213 38.7831 32.3068 39.9031V39.9031L33.6775 41.8532M7.33176 11.976L7.9147 11.0751M28.5552 29.9412V31.6333M43.898 14.2813V14.2813C44.0392 15.2549 44.11 16.2375 44.11 17.2213V17.7789M42.1757 20.2577L41.4603 22.4245" stroke="white" stroke-width="1.05989" stroke-linecap="round"/>
<path d="M84.7296 27.3381C84.9497 27.3381 85.1189 27.4396 85.2374 27.6428C85.3728 27.8459 85.4405 28.1252 85.4405 28.4806C85.4405 29.1408 85.2797 29.6655 84.9581 30.0548C83.2824 32.1029 81.4967 33.1269 79.6009 33.1269C77.959 33.1269 76.6472 32.4922 75.6655 31.2227C74.6837 29.9532 74.1929 28.1336 74.1929 25.7639C74.1929 25.1884 74.2183 24.6129 74.269 24.0374C73.1519 24.2405 71.9332 24.3929 70.6129 24.4944C69.7327 24.5621 69.1318 24.6045 68.8102 24.6214C68.4717 26.3479 67.9978 28.4637 67.3884 30.9688C67.033 32.4414 66.3559 33.1777 65.3572 33.1777C64.2739 33.1777 63.7323 32.6869 63.7323 31.7051C63.7323 31.4851 63.7746 31.1804 63.8592 30.7911C64.4347 28.4722 64.8918 26.5087 65.2303 24.9007L64.0116 24.9514C63.453 24.9514 63.0468 24.8584 62.7929 24.6722C62.539 24.469 62.412 24.1474 62.412 23.7073C62.412 23.1488 62.5728 22.7425 62.8944 22.4886C63.216 22.2178 63.7492 22.0655 64.494 22.0316L65.8396 21.9808C66.2797 19.5942 66.4998 17.7746 66.4998 16.522C66.4998 15.7265 66.3813 15.1849 66.1443 14.8971C65.9074 14.6094 65.5942 14.4655 65.2049 14.4655C64.02 14.4655 62.6829 15.4557 61.1933 17.4361C60.9733 17.7238 60.7278 17.8677 60.457 17.8677C60.22 17.8677 60.0169 17.7577 59.8477 17.5376C59.6784 17.3176 59.5938 17.0383 59.5938 16.6998C59.5938 16.1751 59.8053 15.6165 60.2285 15.0241C60.9733 13.9915 61.9127 13.1452 63.0468 12.4851C64.1808 11.808 65.3318 11.4695 66.4998 11.4695C67.6 11.4695 68.4463 11.8503 69.0388 12.612C69.6481 13.3568 69.9528 14.5247 69.9528 16.1158C69.9528 17.5207 69.7497 19.4249 69.3434 21.8285L71.8316 21.7016C72.898 21.6508 73.812 21.5661 74.5737 21.4477C74.8784 19.5857 75.3439 17.8423 75.9702 16.2174C76.5964 14.5924 77.3751 13.2722 78.306 12.2566C79.237 11.241 80.278 10.7332 81.429 10.7332C82.2753 10.7332 82.9439 11.0717 83.4347 11.7488C83.9256 12.4089 84.171 13.2806 84.171 14.3639C84.171 18.5617 82.0298 21.4731 77.7474 23.098C77.6967 23.7751 77.6713 24.4775 77.6713 25.2053C77.6713 26.9826 77.8913 28.2437 78.3314 28.9884C78.7715 29.7332 79.3893 30.1056 80.1849 30.1056C80.8788 30.1056 81.5136 29.9278 82.0891 29.5724C82.6646 29.2 83.3163 28.5737 84.0441 27.6935C84.2472 27.4566 84.4757 27.3381 84.7296 27.3381ZM81.302 12.9421C80.9296 12.9421 80.5318 13.2806 80.1087 13.9577C79.7025 14.6347 79.3131 15.5572 78.9408 16.7252C78.5684 17.8931 78.2722 19.171 78.0521 20.559C79.4062 20.0004 80.4049 19.2049 81.0481 18.1724C81.6913 17.1399 82.0129 15.8111 82.0129 14.1862C82.0129 13.7969 81.9452 13.4922 81.8098 13.2722C81.6744 13.0521 81.5051 12.9421 81.302 12.9421ZM86.5081 33.1269C85.4587 33.1269 84.6208 32.7461 83.9945 31.9844C83.3682 31.2227 83.0551 30.2241 83.0551 28.9884C83.0551 27.6343 83.3682 26.3563 83.9945 25.1546C84.6208 23.9359 85.4502 22.9626 86.4827 22.2347C87.5321 21.49 88.6408 21.1176 89.8088 21.1176C90.1811 21.1176 90.4266 21.1938 90.5451 21.3461C90.6805 21.4815 90.7905 21.7354 90.8751 22.1078C91.2306 22.0401 91.603 22.0062 91.9923 22.0062C92.8217 22.0062 93.2364 22.3024 93.2364 22.8949C93.2364 23.2503 93.1094 24.0967 92.8555 25.4339C92.4662 27.3804 92.2716 28.7345 92.2716 29.4962C92.2716 29.7501 92.3308 29.9532 92.4493 30.1056C92.5847 30.2579 92.754 30.3341 92.9571 30.3341C93.2787 30.3341 93.668 30.131 94.125 29.7247C94.582 29.3016 95.1999 28.6245 95.9785 27.6935C96.1816 27.4566 96.4101 27.3381 96.664 27.3381C96.884 27.3381 97.0533 27.4396 97.1718 27.6428C97.3072 27.8459 97.3749 28.1252 97.3749 28.4806C97.3749 29.1577 97.2141 29.6824 96.8925 30.0548C96.1985 30.918 95.4622 31.6459 94.6836 32.2383C93.905 32.8307 93.1517 33.1269 92.4239 33.1269C91.8653 33.1269 91.3491 32.9408 90.8751 32.5684C90.4181 32.1791 90.0711 31.6543 89.8342 30.9942C88.954 32.416 87.8453 33.1269 86.5081 33.1269ZM87.4221 30.5626C87.7945 30.5626 88.15 30.3425 88.4885 29.9024C88.827 29.4624 89.0725 28.8784 89.2248 28.1506L90.1642 23.4788C89.4533 23.4958 88.7932 23.7666 88.1838 24.2913C87.5914 24.7991 87.1174 25.4762 86.762 26.3225C86.4065 27.1688 86.2288 28.0659 86.2288 29.0138C86.2288 29.5385 86.3304 29.9278 86.5335 30.1817C86.7535 30.4356 87.0497 30.5626 87.4221 30.5626ZM100.034 33.6855C99.1537 33.6855 98.4767 33.4824 98.0027 33.0762C97.5457 32.6699 97.3172 32.2129 97.3172 31.7051C97.3172 31.265 97.478 30.8842 97.7996 30.5626C98.1212 30.241 98.5951 30.0802 99.2214 30.0802C99.4415 30.0802 99.6954 30.1056 99.9831 30.1563C100.288 30.1902 100.516 30.2156 100.669 30.2325C100.652 29.7924 100.55 29.3777 100.364 28.9884C100.195 28.5991 99.9746 28.2267 99.7038 27.8713C99.433 27.4989 99.1791 27.1773 98.9421 26.9065C98.4174 27.9051 97.8927 28.7345 97.368 29.3947C96.8602 30.0548 96.3016 30.6811 95.6922 31.2735C95.3876 31.5782 95.066 31.7305 94.7274 31.7305C94.4566 31.7305 94.2366 31.6374 94.0673 31.4512C93.898 31.2481 93.8134 31.0027 93.8134 30.7149C93.8134 30.3764 93.9319 30.0633 94.1689 29.7755L94.4989 29.3693C95.4299 28.2183 96.1323 27.2704 96.6063 26.5256C96.894 26.0347 97.2326 25.3831 97.6219 24.5706C98.0112 23.7412 98.392 22.8864 98.7644 22.0062C99.086 21.2615 99.7546 20.8891 100.77 20.8891C101.244 20.8891 101.574 20.9314 101.76 21.016C101.947 21.1007 102.04 21.2361 102.04 21.4223C102.04 21.5238 102.006 21.6846 101.938 21.9047C101.87 22.1247 101.777 22.3448 101.659 22.5648C101.354 23.1742 101.202 23.6904 101.202 24.1136C101.202 24.3675 101.286 24.6468 101.456 24.9514C101.642 25.2561 101.921 25.637 102.294 26.094C102.835 26.8049 103.241 27.4143 103.512 27.922C103.8 28.4129 103.944 28.9546 103.944 29.547C103.944 29.7163 103.927 29.9532 103.893 30.2579C104.723 29.9363 105.696 29.0815 106.813 27.6935C107.016 27.4566 107.245 27.3381 107.498 27.3381C107.719 27.3381 107.888 27.4396 108.006 27.6428C108.142 27.8459 108.209 28.1252 108.209 28.4806C108.209 29.1238 108.049 29.6486 107.727 30.0548C106.881 31.1042 106.068 31.8236 105.29 32.2129C104.528 32.5853 103.58 32.7884 102.446 32.8223C101.769 33.3978 100.965 33.6855 100.034 33.6855ZM120.238 27.3381C120.458 27.3381 120.627 27.4396 120.746 27.6428C120.881 27.8459 120.949 28.1252 120.949 28.4806C120.949 29.1577 120.788 29.6824 120.466 30.0548C119.688 30.9519 118.884 31.6882 118.054 32.2637C117.242 32.8392 116.311 33.1269 115.262 33.1269C114.398 33.1269 113.747 32.8815 113.307 32.3906C112.866 31.8829 112.646 31.155 112.646 30.2071C112.646 29.7332 112.765 28.8869 113.002 27.6682C113.222 26.6018 113.332 25.8655 113.332 25.4592C113.332 25.1884 113.239 25.053 113.053 25.053C112.833 25.053 112.52 25.3408 112.113 25.9163C111.707 26.4748 111.301 27.2196 110.895 28.1506C110.488 29.0815 110.158 30.0633 109.904 31.0958C109.583 32.4499 108.787 33.1269 107.518 33.1269C107.01 33.1269 106.671 32.9492 106.502 32.5938C106.35 32.2214 106.274 31.5612 106.274 30.6134C106.274 30.0717 106.282 29.6401 106.299 29.3185L106.324 27.2873C106.324 24.6806 106.587 21.9639 107.111 19.1372C107.653 16.3105 108.44 13.9408 109.473 12.0281C110.522 10.0984 111.775 9.13363 113.23 9.13363C114.009 9.13363 114.635 9.47216 115.109 10.1492C115.6 10.8094 115.846 11.6726 115.846 12.739C115.846 14.4486 115.346 16.2258 114.348 18.0708C113.349 19.8989 111.724 22.0401 109.473 24.4944C109.422 25.3746 109.397 26.2802 109.397 27.2111C109.955 25.7724 110.573 24.6045 111.25 23.7073C111.944 22.7933 112.621 22.1416 113.281 21.7523C113.958 21.363 114.576 21.1684 115.135 21.1684C116.235 21.1684 116.785 21.7185 116.785 22.8187C116.785 23.4788 116.599 24.6722 116.226 26.3987C115.905 27.8713 115.744 28.8445 115.744 29.3185C115.744 29.9955 115.989 30.3341 116.48 30.3341C116.819 30.3341 117.217 30.131 117.674 29.7247C118.148 29.3016 118.774 28.6245 119.552 27.6935C119.756 27.4566 119.984 27.3381 120.238 27.3381ZM112.697 11.6472C112.393 11.6472 112.054 12.0873 111.682 12.9675C111.309 13.8307 110.945 15.0071 110.59 16.4967C110.251 17.9693 109.972 19.5773 109.752 21.3207C110.801 20.0851 111.665 18.7394 112.342 17.2837C113.036 15.8281 113.383 14.5078 113.383 13.3229C113.383 12.7813 113.324 12.3666 113.205 12.0788C113.087 11.7911 112.917 11.6472 112.697 11.6472ZM125.975 33.2031C123.724 33.2031 121.921 32.78 120.567 31.9336C119.213 31.0704 118.536 29.7586 118.536 27.9982C118.536 27.0673 118.696 26.3563 119.018 25.8655C119.34 25.3746 119.814 25.1292 120.44 25.1292C120.897 25.1292 121.269 25.2477 121.557 25.4846C121.845 25.7216 121.989 26.0263 121.989 26.3987C121.989 26.7372 121.963 27.0334 121.913 27.2873C121.913 27.355 121.896 27.4735 121.862 27.6428C121.845 27.812 121.836 27.9898 121.836 28.1759C121.836 28.9376 122.217 29.5047 122.979 29.8771C123.758 30.2494 124.841 30.4356 126.229 30.4356C127.668 30.4356 128.793 30.1817 129.606 29.6739C130.418 29.1492 130.824 28.4214 130.824 27.4904C130.824 26.9149 130.638 26.4241 130.266 26.0178C129.893 25.5947 129.428 25.2477 128.869 24.9768C128.311 24.6891 127.524 24.3421 126.508 23.9359C125.205 23.4281 124.138 22.9457 123.309 22.4886C122.496 22.0316 121.794 21.4138 121.202 20.6352C120.626 19.8396 120.338 18.8579 120.338 17.69C120.338 16.4713 120.66 15.388 121.303 14.4401C121.963 13.4922 122.903 12.7559 124.121 12.2312C125.357 11.7065 126.804 11.4441 128.463 11.4441C129.699 11.4441 130.833 11.6303 131.865 12.0027C132.898 12.3581 133.719 12.9082 134.328 13.653C134.954 14.3978 135.268 15.3118 135.268 16.3951C135.268 17.4615 135.107 18.2655 134.785 18.8071C134.464 19.3488 133.99 19.6196 133.363 19.6196C132.923 19.6196 132.551 19.4842 132.246 19.2134C131.958 18.9425 131.815 18.6209 131.815 18.2486C131.815 17.9269 131.84 17.6307 131.891 17.3599C131.941 16.8521 131.967 16.5305 131.967 16.3951C131.967 15.6842 131.62 15.1425 130.926 14.7702C130.232 14.3978 129.369 14.2116 128.336 14.2116C126.88 14.2116 125.763 14.4824 124.985 15.0241C124.223 15.5488 123.842 16.2935 123.842 17.2584C123.842 17.9016 124.037 18.4517 124.426 18.9087C124.832 19.3657 125.332 19.7465 125.924 20.0512C126.517 20.3559 127.346 20.7198 128.412 21.143C129.699 21.6677 130.731 22.1416 131.51 22.5648C132.288 22.988 132.949 23.5635 133.49 24.2913C134.049 25.0192 134.328 25.9163 134.328 26.9826C134.328 28.98 133.566 30.5203 132.043 31.6036C130.537 32.6699 128.514 33.2031 125.975 33.2031ZM139.697 19.4927C138.987 19.4927 138.453 19.3318 138.098 19.0102C137.742 18.6717 137.565 18.2062 137.565 17.6138C137.565 17.0214 137.793 16.5305 138.25 16.1412C138.724 15.735 139.308 15.5318 140.002 15.5318C140.628 15.5318 141.136 15.6842 141.526 15.9889C141.915 16.2935 142.109 16.7252 142.109 17.2837C142.109 17.9608 141.889 18.5024 141.449 18.9087C141.009 19.298 140.425 19.4927 139.697 19.4927ZM139.494 33.1269C138.394 33.1269 137.59 32.7376 137.082 31.959C136.591 31.1804 136.346 30.1479 136.346 28.8615C136.346 28.0998 136.439 27.1265 136.625 25.9416C136.828 24.7399 137.082 23.6227 137.387 22.5902C137.539 22.0486 137.742 21.6762 137.996 21.4731C138.25 21.2699 138.656 21.1684 139.215 21.1684C140.078 21.1684 140.51 21.4561 140.51 22.0316C140.51 22.4548 140.349 23.4365 140.028 24.9768C139.621 26.8388 139.418 28.0998 139.418 28.7599C139.418 29.2677 139.486 29.657 139.621 29.9278C139.757 30.1987 139.985 30.3341 140.307 30.3341C140.611 30.3341 140.992 30.1225 141.449 29.6993C141.906 29.2762 142.516 28.6076 143.277 27.6935C143.481 27.4566 143.709 27.3381 143.963 27.3381C144.183 27.3381 144.352 27.4396 144.471 27.6428C144.606 27.8459 144.674 28.1252 144.674 28.4806C144.674 29.1577 144.513 29.6824 144.191 30.0548C142.516 32.1029 140.95 33.1269 139.494 33.1269ZM155.619 27.3889C155.839 27.3889 156.009 27.4989 156.127 27.7189C156.262 27.922 156.33 28.1844 156.33 28.506C156.33 28.8953 156.271 29.2 156.152 29.42C156.034 29.6401 155.848 29.8347 155.594 30.004C154.138 30.9857 153.072 31.7136 152.395 32.1875L150.77 33.2793C150.127 36.7831 149.28 39.5336 148.231 41.531C147.198 43.5452 145.878 44.5523 144.27 44.5523C143.407 44.5523 142.704 44.2815 142.163 43.7399C141.621 43.2151 141.35 42.5212 141.35 41.6579C141.35 40.4561 141.824 39.1612 142.772 37.7733C143.72 36.4022 145.497 34.7096 148.104 32.6953L148.256 31.7051C147.968 32.1621 147.588 32.5176 147.114 32.7715C146.657 33.0085 146.2 33.1269 145.743 33.1269C144.693 33.1269 143.855 32.7461 143.229 31.9844C142.603 31.2227 142.29 30.2241 142.29 28.9884C142.29 27.6343 142.603 26.3563 143.229 25.1546C143.855 23.9359 144.685 22.9626 145.717 22.2347C146.767 21.49 147.875 21.1176 149.043 21.1176C149.416 21.1176 149.661 21.1938 149.78 21.3461C149.915 21.4815 150.025 21.7354 150.11 22.1078C150.431 22.0401 150.804 22.0062 151.227 22.0062C151.65 22.0062 151.946 22.0739 152.115 22.2094C152.302 22.3278 152.395 22.5733 152.395 22.9457C152.395 23.1488 152.386 23.3096 152.369 23.4281C152.302 23.9528 152.09 25.2815 151.735 27.4143C151.667 27.8205 151.591 28.269 151.506 28.7599C151.438 29.2339 151.362 29.7416 151.278 30.2833C152.581 29.2677 153.833 28.3706 155.035 27.592C155.255 27.4566 155.45 27.3889 155.619 27.3889ZM146.657 30.5626C147.046 30.5626 147.418 30.3256 147.774 29.8517C148.129 29.3777 148.383 28.7007 148.535 27.8205L149.348 23.4788C148.654 23.4958 148.011 23.7666 147.418 24.2913C146.826 24.7991 146.352 25.4762 145.996 26.3225C145.641 27.1688 145.463 28.0659 145.463 29.0138C145.463 29.5385 145.565 29.9278 145.768 30.1817C145.988 30.4356 146.284 30.5626 146.657 30.5626ZM144.549 42.0895C144.972 42.0895 145.446 41.5817 145.971 40.5661C146.513 39.5506 147.029 37.9341 147.52 35.7167C146.217 36.8339 145.277 37.841 144.702 38.7381C144.126 39.6352 143.838 40.4223 143.838 41.0993C143.838 41.3871 143.889 41.6241 143.991 41.8102C144.109 41.9964 144.295 42.0895 144.549 42.0895ZM156.299 33.1269C155.656 33.1269 155.199 32.7884 154.928 32.1114C154.674 31.4343 154.547 30.351 154.547 28.8615C154.547 26.661 154.86 24.5706 155.487 22.5902C155.639 22.0993 155.884 21.7439 156.223 21.5238C156.578 21.2869 157.069 21.1684 157.695 21.1684C158.034 21.1684 158.271 21.2107 158.406 21.2953C158.542 21.38 158.609 21.5408 158.609 21.7777C158.609 22.0486 158.482 22.6579 158.229 23.6058C158.059 24.2829 157.924 24.8753 157.822 25.3831C157.721 25.8909 157.636 26.5171 157.568 27.2619C158.127 25.8062 158.753 24.6214 159.447 23.7073C160.141 22.7933 160.818 22.1416 161.478 21.7523C162.156 21.363 162.773 21.1684 163.332 21.1684C163.874 21.1684 164.28 21.3122 164.551 21.6C164.838 21.8708 164.982 22.2771 164.982 22.8187C164.982 23.2588 164.889 24.0882 164.703 25.3069C164.534 26.3394 164.398 27.3212 164.297 28.2521C164.195 29.1661 164.144 30.1902 164.144 31.3243C164.144 31.9675 164.009 32.433 163.738 32.7207C163.484 32.9915 163.061 33.1269 162.469 33.1269C161.91 33.1269 161.504 32.9831 161.25 32.6953C160.996 32.4076 160.869 31.9759 160.869 31.4004C160.869 30.7234 160.988 29.6062 161.225 28.049C161.428 26.6949 161.529 25.8316 161.529 25.4592C161.529 25.1884 161.436 25.053 161.25 25.053C161.03 25.053 160.717 25.3408 160.311 25.9163C159.921 26.4748 159.515 27.2196 159.092 28.1506C158.686 29.0815 158.356 30.0633 158.102 31.0958C157.915 31.8913 157.695 32.433 157.442 32.7207C157.205 32.9915 156.824 33.1269 156.299 33.1269Z" fill="black"/>
</svg>
