<svg width="870" height="348" viewBox="0 0 870 348" fill="none" xmlns="http://www.w3.org/2000/svg">
<path d="M440.684 189.899C441.69 189.899 442.463 190.363 443.004 191.291C443.623 192.219 443.932 193.495 443.932 195.119C443.932 198.135 443.198 200.532 441.728 202.311C434.072 211.668 425.914 216.347 417.252 216.347C409.751 216.347 403.758 213.447 399.272 207.647C394.787 201.847 392.544 193.533 392.544 182.707C392.544 180.077 392.66 177.448 392.892 174.819C387.788 175.747 382.22 176.443 376.188 176.907C372.167 177.216 369.422 177.409 367.952 177.487C366.406 185.375 364.24 195.041 361.456 206.487C359.832 213.215 356.739 216.579 352.176 216.579C347.227 216.579 344.752 214.336 344.752 209.851C344.752 208.845 344.946 207.453 345.332 205.675C347.962 195.08 350.05 186.109 351.596 178.763L346.028 178.995C343.476 178.995 341.62 178.569 340.46 177.719C339.3 176.791 338.72 175.321 338.72 173.311C338.72 170.759 339.455 168.903 340.924 167.743C342.394 166.505 344.83 165.809 348.232 165.655L354.38 165.423C356.391 154.519 357.396 146.205 357.396 140.483C357.396 136.848 356.855 134.373 355.772 133.059C354.69 131.744 353.259 131.087 351.48 131.087C346.067 131.087 339.958 135.611 333.152 144.659C332.147 145.973 331.026 146.631 329.788 146.631C328.706 146.631 327.778 146.128 327.004 145.123C326.231 144.117 325.844 142.841 325.844 141.295C325.844 138.897 326.811 136.345 328.744 133.639C332.147 128.921 336.439 125.055 341.62 122.039C346.802 118.945 352.06 117.399 357.396 117.399C362.423 117.399 366.29 119.139 368.996 122.619C371.78 126.021 373.172 131.357 373.172 138.627C373.172 145.045 372.244 153.745 370.388 164.727L381.756 164.147C386.628 163.915 390.804 163.528 394.284 162.987C395.676 154.48 397.803 146.515 400.664 139.091C403.526 131.667 407.083 125.635 411.336 120.995C415.59 116.355 420.346 114.035 425.604 114.035C429.471 114.035 432.526 115.581 434.768 118.675C437.011 121.691 438.132 125.673 438.132 130.623C438.132 149.801 428.35 163.103 408.784 170.527C408.552 173.62 408.436 176.829 408.436 180.155C408.436 188.275 409.442 194.036 411.452 197.439C413.463 200.841 416.286 202.543 419.92 202.543C423.091 202.543 425.991 201.731 428.62 200.107C431.25 198.405 434.227 195.544 437.552 191.523C438.48 190.44 439.524 189.899 440.684 189.899ZM425.024 124.127C423.323 124.127 421.506 125.673 419.572 128.767C417.716 131.86 415.938 136.075 414.236 141.411C412.535 146.747 411.182 152.585 410.176 158.927C416.363 156.375 420.926 152.74 423.864 148.023C426.803 143.305 428.272 137.235 428.272 129.811C428.272 128.032 427.963 126.64 427.344 125.635C426.726 124.629 425.952 124.127 425.024 124.127ZM448.81 216.347C444.015 216.347 440.187 214.607 437.326 211.127C434.464 207.647 433.034 203.084 433.034 197.439C433.034 191.252 434.464 185.413 437.326 179.923C440.187 174.355 443.976 169.908 448.694 166.583C453.488 163.18 458.554 161.479 463.89 161.479C465.591 161.479 466.712 161.827 467.254 162.523C467.872 163.141 468.375 164.301 468.762 166.003C470.386 165.693 472.087 165.539 473.866 165.539C477.655 165.539 479.55 166.892 479.55 169.599C479.55 171.223 478.97 175.089 477.81 181.199C476.031 190.092 475.142 196.279 475.142 199.759C475.142 200.919 475.412 201.847 475.954 202.543C476.572 203.239 477.346 203.587 478.274 203.587C479.743 203.587 481.522 202.659 483.61 200.803C485.698 198.869 488.52 195.776 492.078 191.523C493.006 190.44 494.05 189.899 495.21 189.899C496.215 189.899 496.988 190.363 497.53 191.291C498.148 192.219 498.458 193.495 498.458 195.119C498.458 198.212 497.723 200.609 496.254 202.311C493.083 206.255 489.719 209.58 486.162 212.287C482.604 214.993 479.163 216.347 475.838 216.347C473.286 216.347 470.927 215.496 468.762 213.795C466.674 212.016 465.088 209.619 464.006 206.603C459.984 213.099 454.919 216.347 448.81 216.347ZM452.986 204.631C454.687 204.631 456.311 203.625 457.858 201.615C459.404 199.604 460.526 196.936 461.222 193.611L465.514 172.267C462.266 172.344 459.25 173.581 456.466 175.979C453.759 178.299 451.594 181.392 449.97 185.259C448.346 189.125 447.534 193.224 447.534 197.555C447.534 199.952 447.998 201.731 448.926 202.891C449.931 204.051 451.284 204.631 452.986 204.631ZM510.606 218.899C506.585 218.899 503.491 217.971 501.326 216.115C499.238 214.259 498.194 212.171 498.194 209.851C498.194 207.84 498.929 206.1 500.398 204.631C501.867 203.161 504.033 202.427 506.894 202.427C507.899 202.427 509.059 202.543 510.374 202.775C511.766 202.929 512.81 203.045 513.506 203.123C513.429 201.112 512.965 199.217 512.114 197.439C511.341 195.66 510.335 193.959 509.098 192.335C507.861 190.633 506.701 189.164 505.618 187.927C503.221 192.489 500.823 196.279 498.426 199.295C496.106 202.311 493.554 205.172 490.77 207.879C489.378 209.271 487.909 209.967 486.362 209.967C485.125 209.967 484.119 209.541 483.346 208.691C482.573 207.763 482.186 206.641 482.186 205.327C482.186 203.78 482.727 202.349 483.81 201.035L485.318 199.179C489.571 193.92 492.781 189.589 494.946 186.187C496.261 183.944 497.807 180.967 499.586 177.255C501.365 173.465 503.105 169.56 504.806 165.539C506.275 162.136 509.33 160.435 513.97 160.435C516.135 160.435 517.643 160.628 518.494 161.015C519.345 161.401 519.77 162.02 519.77 162.871C519.77 163.335 519.615 164.069 519.306 165.075C518.997 166.08 518.571 167.085 518.03 168.091C516.638 170.875 515.942 173.233 515.942 175.167C515.942 176.327 516.329 177.603 517.102 178.995C517.953 180.387 519.229 182.127 520.93 184.215C523.405 187.463 525.261 190.247 526.498 192.567C527.813 194.809 528.47 197.284 528.47 199.991C528.47 200.764 528.393 201.847 528.238 203.239C532.027 201.769 536.474 197.864 541.578 191.523C542.506 190.44 543.55 189.899 544.71 189.899C545.715 189.899 546.489 190.363 547.03 191.291C547.649 192.219 547.958 193.495 547.958 195.119C547.958 198.057 547.223 200.455 545.754 202.311C541.887 207.105 538.175 210.392 534.618 212.171C531.138 213.872 526.807 214.8 521.626 214.955C518.533 217.584 514.859 218.899 510.606 218.899ZM602.914 189.899C603.919 189.899 604.692 190.363 605.234 191.291C605.852 192.219 606.162 193.495 606.162 195.119C606.162 198.212 605.427 200.609 603.958 202.311C600.4 206.409 596.727 209.773 592.938 212.403C589.226 215.032 584.972 216.347 580.178 216.347C576.234 216.347 573.256 215.225 571.246 212.983C569.235 210.663 568.23 207.337 568.23 203.007C568.23 200.841 568.771 196.975 569.854 191.407C570.859 186.535 571.362 183.171 571.362 181.315C571.362 180.077 570.936 179.459 570.086 179.459C569.08 179.459 567.65 180.773 565.794 183.403C563.938 185.955 562.082 189.357 560.226 193.611C558.37 197.864 556.862 202.349 555.702 207.067C554.232 213.253 550.598 216.347 544.798 216.347C542.478 216.347 540.931 215.535 540.158 213.911C539.462 212.209 539.114 209.193 539.114 204.863C539.114 202.388 539.152 200.416 539.23 198.947L539.346 189.667C539.346 177.757 540.544 165.345 542.942 152.431C545.416 139.516 549.012 128.689 553.73 119.951C558.524 111.135 564.247 106.727 570.898 106.727C574.455 106.727 577.316 108.273 579.482 111.367C581.724 114.383 582.846 118.327 582.846 123.199C582.846 131.009 580.564 139.129 576.002 147.559C571.439 155.911 564.015 165.693 553.73 176.907C553.498 180.928 553.382 185.065 553.382 189.319C555.934 182.745 558.756 177.409 561.85 173.311C565.02 169.135 568.114 166.157 571.13 164.379C574.223 162.6 577.046 161.711 579.598 161.711C584.624 161.711 587.138 164.224 587.138 169.251C587.138 172.267 586.287 177.719 584.586 185.607C583.116 192.335 582.382 196.781 582.382 198.947C582.382 202.04 583.503 203.587 585.746 203.587C587.292 203.587 589.11 202.659 591.198 200.803C593.363 198.869 596.224 195.776 599.782 191.523C600.71 190.44 601.754 189.899 602.914 189.899ZM568.462 118.211C567.07 118.211 565.523 120.221 563.822 124.243C562.12 128.187 560.458 133.561 558.834 140.367C557.287 147.095 556.011 154.441 555.006 162.407C559.8 156.761 563.744 150.613 566.838 143.963C570.008 137.312 571.594 131.28 571.594 125.867C571.594 123.392 571.323 121.497 570.782 120.183C570.24 118.868 569.467 118.211 568.462 118.211ZM629.124 216.695C618.839 216.695 610.603 214.761 604.416 210.895C598.23 206.951 595.136 200.957 595.136 192.915C595.136 188.661 595.871 185.413 597.34 183.171C598.81 180.928 600.975 179.807 603.836 179.807C605.924 179.807 607.626 180.348 608.94 181.431C610.255 182.513 610.912 183.905 610.912 185.607C610.912 187.153 610.796 188.507 610.564 189.667C610.564 189.976 610.487 190.517 610.332 191.291C610.255 192.064 610.216 192.876 610.216 193.727C610.216 197.207 611.956 199.797 615.436 201.499C618.994 203.2 623.943 204.051 630.284 204.051C636.858 204.051 642 202.891 645.712 200.571C649.424 198.173 651.28 194.848 651.28 190.595C651.28 187.965 650.43 185.723 648.728 183.867C647.027 181.933 644.9 180.348 642.348 179.111C639.796 177.796 636.2 176.211 631.56 174.355C625.606 172.035 620.734 169.831 616.944 167.743C613.232 165.655 610.023 162.832 607.316 159.275C604.687 155.64 603.372 151.155 603.372 145.819C603.372 140.251 604.842 135.301 607.78 130.971C610.796 126.64 615.088 123.276 620.656 120.879C626.302 118.481 632.914 117.283 640.492 117.283C646.138 117.283 651.319 118.133 656.036 119.835C660.754 121.459 664.504 123.972 667.288 127.375C670.15 130.777 671.58 134.953 671.58 139.903C671.58 144.775 670.846 148.448 669.376 150.923C667.907 153.397 665.742 154.635 662.88 154.635C660.87 154.635 659.168 154.016 657.776 152.779C656.462 151.541 655.804 150.072 655.804 148.371C655.804 146.901 655.92 145.548 656.152 144.311C656.384 141.991 656.5 140.521 656.5 139.903C656.5 136.655 654.915 134.18 651.744 132.479C648.574 130.777 644.63 129.927 639.912 129.927C633.262 129.927 628.158 131.164 624.6 133.639C621.12 136.036 619.38 139.439 619.38 143.847C619.38 146.785 620.27 149.299 622.048 151.387C623.904 153.475 626.186 155.215 628.892 156.607C631.599 157.999 635.388 159.661 640.26 161.595C646.138 163.992 650.855 166.157 654.412 168.091C657.97 170.024 660.986 172.653 663.46 175.979C666.012 179.304 667.288 183.403 667.288 188.275C667.288 197.4 663.808 204.437 656.848 209.387C649.966 214.259 640.724 216.695 629.124 216.695ZM691.82 154.055C688.572 154.055 686.136 153.32 684.512 151.851C682.888 150.304 682.076 148.177 682.076 145.471C682.076 142.764 683.12 140.521 685.208 138.743C687.373 136.887 690.041 135.959 693.212 135.959C696.073 135.959 698.393 136.655 700.172 138.047C701.95 139.439 702.84 141.411 702.84 143.963C702.84 147.056 701.834 149.531 699.824 151.387C697.813 153.165 695.145 154.055 691.82 154.055ZM690.892 216.347C685.865 216.347 682.192 214.568 679.872 211.011C677.629 207.453 676.508 202.736 676.508 196.859C676.508 193.379 676.933 188.932 677.784 183.519C678.712 178.028 679.872 172.924 681.264 168.207C681.96 165.732 682.888 164.031 684.048 163.103C685.208 162.175 687.064 161.711 689.616 161.711C693.56 161.711 695.532 163.025 695.532 165.655C695.532 167.588 694.797 172.073 693.328 179.111C691.472 187.617 690.544 193.379 690.544 196.395C690.544 198.715 690.853 200.493 691.472 201.731C692.09 202.968 693.134 203.587 694.604 203.587C695.996 203.587 697.736 202.62 699.824 200.687C701.912 198.753 704.696 195.699 708.176 191.523C709.104 190.44 710.148 189.899 711.308 189.899C712.313 189.899 713.086 190.363 713.628 191.291C714.246 192.219 714.556 193.495 714.556 195.119C714.556 198.212 713.821 200.609 712.352 202.311C704.696 211.668 697.542 216.347 690.892 216.347ZM764.563 190.131C765.568 190.131 766.341 190.633 766.883 191.639C767.501 192.567 767.811 193.765 767.811 195.235C767.811 197.013 767.54 198.405 766.999 199.411C766.457 200.416 765.607 201.305 764.447 202.079C757.796 206.564 752.924 209.889 749.831 212.055L742.407 217.043C739.468 233.051 735.601 245.617 730.807 254.743C726.089 263.945 720.057 268.547 712.711 268.547C708.767 268.547 705.557 267.309 703.083 264.835C700.608 262.437 699.371 259.267 699.371 255.323C699.371 249.832 701.536 243.916 705.867 237.575C710.197 231.311 718.317 223.577 730.227 214.375L730.923 209.851C729.608 211.939 727.868 213.563 725.703 214.723C723.615 215.805 721.527 216.347 719.439 216.347C714.644 216.347 710.816 214.607 707.955 211.127C705.093 207.647 703.663 203.084 703.663 197.439C703.663 191.252 705.093 185.413 707.955 179.923C710.816 174.355 714.605 169.908 719.323 166.583C724.117 163.18 729.183 161.479 734.519 161.479C736.22 161.479 737.341 161.827 737.883 162.523C738.501 163.141 739.004 164.301 739.391 166.003C740.86 165.693 742.561 165.539 744.495 165.539C746.428 165.539 747.781 165.848 748.555 166.467C749.405 167.008 749.831 168.129 749.831 169.831C749.831 170.759 749.792 171.493 749.715 172.035C749.405 174.432 748.439 180.503 746.815 190.247C746.505 192.103 746.157 194.152 745.771 196.395C745.461 198.56 745.113 200.88 744.727 203.355C750.681 198.715 756.404 194.616 761.895 191.059C762.9 190.44 763.789 190.131 764.563 190.131ZM723.615 204.631C725.393 204.631 727.095 203.548 728.719 201.383C730.343 199.217 731.503 196.124 732.199 192.103L735.911 172.267C732.74 172.344 729.801 173.581 727.095 175.979C724.388 178.299 722.223 181.392 720.599 185.259C718.975 189.125 718.163 193.224 718.163 197.555C718.163 199.952 718.627 201.731 719.555 202.891C720.56 204.051 721.913 204.631 723.615 204.631ZM713.987 257.295C715.92 257.295 718.085 254.975 720.483 250.335C722.957 245.695 725.316 238.309 727.559 228.179C721.604 233.283 717.312 237.884 714.683 241.983C712.053 246.081 710.739 249.677 710.739 252.771C710.739 254.085 710.971 255.168 711.435 256.019C711.976 256.869 712.827 257.295 713.987 257.295ZM767.668 216.347C764.73 216.347 762.642 214.8 761.404 211.707C760.244 208.613 759.664 203.664 759.664 196.859C759.664 186.805 761.095 177.255 763.956 168.207C764.652 165.964 765.774 164.34 767.32 163.335C768.944 162.252 771.187 161.711 774.048 161.711C775.595 161.711 776.678 161.904 777.296 162.291C777.915 162.677 778.224 163.412 778.224 164.495C778.224 165.732 777.644 168.516 776.484 172.847C775.711 175.94 775.092 178.647 774.628 180.967C774.164 183.287 773.778 186.148 773.468 189.551C776.02 182.9 778.882 177.487 782.052 173.311C785.223 169.135 788.316 166.157 791.332 164.379C794.426 162.6 797.248 161.711 799.8 161.711C802.275 161.711 804.131 162.368 805.368 163.683C806.683 164.92 807.34 166.776 807.34 169.251C807.34 171.261 806.915 175.051 806.064 180.619C805.291 185.336 804.672 189.821 804.208 194.075C803.744 198.251 803.512 202.929 803.512 208.111C803.512 211.049 802.894 213.176 801.656 214.491C800.496 215.728 798.563 216.347 795.856 216.347C793.304 216.347 791.448 215.689 790.288 214.375C789.128 213.06 788.548 211.088 788.548 208.459C788.548 205.365 789.09 200.261 790.172 193.147C791.1 186.96 791.564 183.016 791.564 181.315C791.564 180.077 791.139 179.459 790.288 179.459C789.283 179.459 787.852 180.773 785.996 183.403C784.218 185.955 782.362 189.357 780.428 193.611C778.572 197.864 777.064 202.349 775.904 207.067C775.054 210.701 774.048 213.176 772.888 214.491C771.806 215.728 770.066 216.347 767.668 216.347Z" fill="white"/>
<path d="M61.6314 103.238L52.2002 117.071M53.9548 131.563C54.6567 131.388 75.6519 98.3127 86.0335 81.8445M80.5557 112.295L100.672 76.4498M100.672 99.5053L115.587 73.8149M120.412 86.5503L111.639 101.042M125.895 80.4022L129.185 76.4498M137.958 83.9154V83.9154C130.515 92.9738 123.881 102.667 118.131 112.884L117.999 113.119M117.999 140.489L127.278 123.572L137.106 106.172L145 94.5723M147.389 108.727L143.222 117.071M137.958 128.709L126.772 147.373L114.929 163.182M105.528 175.772L95.0557 186.457L83.1257 197.436M87.951 179.211C86.7228 180.441 82.3215 184.554 80.2745 186.457M96.7242 200.291L115.806 180.529L132.036 159.45L147.389 135.077M142.345 164.5V164.5C131.977 179.118 120.546 192.953 108.145 205.891L105.936 208.195M101.549 226.64L121.289 208.195L139.932 186.457L147.389 177.235M163.181 174.82L147.609 196.119M132.036 213.904L114.929 230.812L98.4789 245.084M93.2149 263.309C94.0923 262.431 106.155 253.282 112.077 248.817M121.289 241.791L130.282 233.008M124.798 252.111L96.7242 273.629M105.936 280.656L119.754 270.555M161.865 196.119L169.322 186.457M174.148 180.529L179.412 172.844M177.876 193.703C179.997 190.776 184.369 184.745 184.895 184.042C185.421 183.339 190.086 175.405 192.352 171.526M198.055 163.182L203.663 151.378C205.622 147.254 207.181 142.951 208.316 138.528V138.528C209.804 132.737 210.557 126.781 210.557 120.802V118.608M193.449 192.386L208.802 165.817L215.063 154.199C216.88 150.827 218.365 147.287 219.497 143.629L219.65 143.134C221.614 136.788 222.439 130.144 222.085 123.51V123.51C221.857 119.232 221.142 114.993 219.951 110.877L219.33 108.727L217.794 103.897M197.522 201.55L195.423 204.933M190.434 207.833L195.423 204.933M194.984 225.981V225.981C196.295 236.336 198.855 246.495 202.608 256.235L202.88 256.941M206.609 225.103V214.095C206.609 206.827 207.568 199.591 209.462 192.574V192.574C210.483 188.794 211.771 185.091 213.317 181.494L219.11 168.013L227.884 151.325M223.716 93.3572L226.179 97.5835C228.618 101.769 230.421 106.294 231.529 111.01V111.01C232.168 113.728 232.573 116.497 232.739 119.284L233.367 129.807M229.858 83.0371V83.0371C233.796 88.2937 237.197 93.9317 240.01 99.8667L241.921 103.897M238.411 75.3519L238.939 75.9891C242.821 80.6799 246.313 85.6808 249.378 90.9418V90.9418M247.623 69.4234L248.333 70.286C251.947 74.6791 255.159 79.3875 257.932 84.3545V84.3545M260.564 67.6667L267.843 79.2058C270.005 82.6324 271.88 86.232 273.448 89.9677V89.9677C276.104 96.2949 277.861 102.963 278.667 109.778L279.426 116.193V134.418M274.162 70.9604V70.9604C278.967 78.5406 282.774 86.7096 285.487 95.2647L285.787 96.2116M266.924 113.119L267.199 119.808C267.454 126.018 267.075 132.239 266.068 138.373V138.373C265.324 142.903 264.24 147.37 262.825 151.737L259.687 161.426M253.107 146.055L248.281 159.23L241.263 174.381M236.876 159.23L229.2 172.185L224.813 182.505L220.646 195.46M218.233 210.172V223.857C218.233 227.756 218.522 231.65 219.097 235.507L219.442 237.825C220.096 242.211 221.247 246.509 222.872 250.634V250.634C225.318 256.843 228.808 262.587 233.192 267.617L235.56 270.336L244.114 278.46M248.281 266.383L259.906 275.386M241.263 256.941L241.063 256.757C237.411 253.382 234.232 249.53 231.612 245.304V245.304M254.203 254.746L261.88 261.992L273.285 270.336M265.17 251.672L267.58 253.555C271.95 256.969 276.743 259.805 281.839 261.992V261.992M274.162 244.426L274.717 244.87C279.453 248.663 284.558 251.971 289.954 254.746V254.746M283.813 236.082L295.876 244.426M291.709 229.714L297.411 233.886M207.267 237.619L208.378 242.854C210.105 250.991 213.457 258.695 218.233 265.505V265.505L226.568 277.362M66.378 95.7001L69.9224 90.2223M195.423 204.933V215.222M288.711 109.717V109.717C289.569 115.637 290 121.611 290 127.593V130.983M278.239 146.055L273.889 159.23" stroke="#EB1D36" stroke-width="6.44444" stroke-linecap="round"/>
</svg>
