<svg width="48" height="48" viewBox="0 0 48 48" fill="none" xmlns="http://www.w3.org/2000/svg">
<rect width="48" height="48" rx="24" fill="#EB1D36"/>
<path d="M23.9577 7.9783C27.7122 7.9783 31.2543 8.78447 34.5838 10.3968C37.9133 12.0092 40.6938 14.3377 42.9253 17.3824C43.1733 17.7012 43.2533 17.9846 43.1655 18.2325C43.0776 18.4805 42.9268 18.693 42.7128 18.8701C42.4989 19.0472 42.2509 19.1273 41.969 19.1103C41.687 19.0933 41.4391 18.9424 41.2252 18.6576C39.277 15.8948 36.7714 13.7788 33.7082 12.3095C30.645 10.8403 27.3949 10.1049 23.9577 10.1035C20.5204 10.1021 17.2972 10.8374 14.2879 12.3095C11.2785 13.7816 8.78138 15.8976 6.79642 18.6576C6.58389 18.9764 6.33595 19.1535 6.05259 19.1889C5.76922 19.2243 5.52128 19.1535 5.30876 18.9764C5.06081 18.7993 4.90992 18.5782 4.85608 18.3133C4.80224 18.0484 4.88229 17.7735 5.09623 17.4887C7.2923 14.478 10.0466 12.1402 13.3591 10.4754C16.6717 8.81068 20.2045 7.9783 23.9577 7.9783ZM23.9577 12.9726C28.7394 12.9726 32.8482 14.5665 36.284 17.7544C39.7198 20.9422 41.4377 24.8916 41.4377 29.6025C41.4377 31.3735 40.8093 32.8527 39.5526 34.04C38.2959 35.2273 36.7636 35.8202 34.9557 35.8188C33.1479 35.8174 31.5986 35.2245 30.3078 34.04C29.0171 32.8555 28.3703 31.3764 28.3675 29.6025C28.3675 28.4336 27.934 27.4504 27.0669 26.6527C26.1998 25.855 25.1634 25.4569 23.9577 25.4583C22.7519 25.4597 21.7155 25.8586 20.8484 26.6548C19.9813 27.4511 19.5478 28.4336 19.5478 29.6025C19.5478 33.0383 20.5665 35.9074 22.6039 38.2097C24.6413 40.512 27.2709 42.1237 30.4927 43.0446C30.8115 43.1509 31.024 43.328 31.1303 43.5759C31.2366 43.8239 31.2543 44.0895 31.1834 44.3729C31.1126 44.6208 30.9709 44.8333 30.7584 45.0104C30.5459 45.1875 30.2802 45.2407 29.9614 45.1698C26.2777 44.2489 23.267 42.4155 20.9292 39.6697C18.5914 36.9239 17.4226 33.5682 17.4226 29.6025C17.4226 27.8315 18.0601 26.3438 19.3353 25.1395C20.6104 23.9352 22.1512 23.3331 23.9577 23.3331C25.7641 23.3331 27.3049 23.9352 28.58 25.1395C29.8552 26.3438 30.4927 27.8315 30.4927 29.6025C30.4927 30.7714 30.9355 31.7547 31.821 32.5523C32.7065 33.35 33.7514 33.7481 34.9557 33.7467C36.16 33.7453 37.1872 33.3472 38.0373 32.5523C38.8874 31.7575 39.3124 30.7742 39.3124 29.6025C39.3124 25.4937 37.8071 22.0402 34.7963 19.242C31.7856 16.4438 28.1904 15.0447 24.0108 15.0447C19.8312 15.0447 16.236 16.4438 13.2252 19.242C10.2145 22.0402 8.70912 25.476 8.70912 29.5494C8.70912 30.3995 8.78917 31.4621 8.94928 32.7372C9.10938 34.0124 9.48979 35.5 10.0905 37.2002C10.1968 37.519 10.1883 37.8024 10.065 38.0503C9.94176 38.2983 9.73774 38.4754 9.45295 38.5816C9.16817 38.6879 8.89402 38.6794 8.63049 38.5561C8.36696 38.4329 8.18065 38.2288 8.07156 37.9441C7.54025 36.5627 7.15983 35.1905 6.93031 33.8275C6.70078 32.4645 6.58531 31.0562 6.58389 29.6025C6.58389 24.8916 8.29329 20.9422 11.7121 17.7544C15.1309 14.5665 19.2127 12.9726 23.9577 12.9726ZM23.9577 2.77148C26.2246 2.77148 28.4383 3.04564 30.599 3.59395C32.7596 4.14226 34.8495 4.93072 36.8684 5.95933C37.1872 6.13643 37.3735 6.34896 37.4274 6.5969C37.4812 6.84484 37.4543 7.09279 37.3466 7.34073C37.2389 7.58867 37.0618 7.78349 36.8153 7.92517C36.5688 8.06685 36.2677 8.04914 35.9121 7.87204C34.0348 6.91568 32.0952 6.18106 30.0932 5.66817C28.0912 5.15528 26.046 4.89813 23.9577 4.89671C21.9033 4.89671 19.8843 5.13616 17.9007 5.61504C15.9172 6.09393 14.0222 6.84626 12.2158 7.87204C11.9324 8.04914 11.649 8.09377 11.3657 8.00593C11.0823 7.91808 10.8698 7.73177 10.7281 7.44699C10.5864 7.16221 10.551 6.90577 10.6218 6.67766C10.6927 6.44955 10.8698 6.24553 11.1531 6.06559C13.1367 5.00298 15.2088 4.1883 17.3694 3.62158C19.5301 3.05485 21.7262 2.77148 23.9577 2.77148ZM23.9577 18.1263C27.2518 18.1263 30.0854 19.2335 32.4586 21.448C34.8317 23.6625 36.0183 26.3807 36.0183 29.6025C36.0183 29.9213 35.9213 30.1785 35.7272 30.374C35.5331 30.5695 35.2759 30.6666 34.9557 30.6651C34.6724 30.6651 34.4244 30.5681 34.2119 30.374C33.9994 30.1799 33.8931 29.9227 33.8931 29.6025C33.8931 26.946 32.9098 24.7237 30.9433 22.9357C28.9767 21.1476 26.6482 20.2529 23.9577 20.2515C21.2671 20.2501 18.9563 21.1448 17.0252 22.9357C15.094 24.7265 14.1285 26.9488 14.1285 29.6025C14.1285 32.4716 14.6243 34.9071 15.6161 36.9091C16.6079 38.911 18.0601 40.9208 19.9728 42.9383C20.1854 43.1509 20.2916 43.3988 20.2916 43.6822C20.2916 43.9655 20.1854 44.2135 19.9728 44.426C19.7603 44.6385 19.5124 44.7448 19.229 44.7448C18.9457 44.7448 18.6977 44.6385 18.4852 44.426C16.3954 42.2299 14.793 39.9899 13.6779 37.706C12.5629 35.4221 12.0046 32.7209 12.0032 29.6025C12.0032 26.3793 13.1721 23.6604 15.5099 21.4459C17.8476 19.2314 20.6635 18.1249 23.9577 18.1263ZM23.9045 28.5399C24.2233 28.5399 24.4805 28.6462 24.676 28.8587C24.8715 29.0712 24.9686 29.3192 24.9671 29.6025C24.9671 32.2591 25.9235 34.4374 27.8362 36.1376C29.7489 37.8378 31.9804 38.6879 34.5307 38.6879C34.7432 38.6879 35.0443 38.6702 35.4339 38.6348C35.8235 38.5993 36.2309 38.5462 36.6559 38.4754C36.9747 38.4045 37.2496 38.4492 37.4805 38.6092C37.7114 38.7693 37.8616 39.0081 37.931 39.3255C38.0019 39.6088 37.9488 39.8568 37.7717 40.0693C37.5945 40.2818 37.3643 40.4235 37.081 40.4943C36.4434 40.6714 35.8859 40.7692 35.4084 40.7876C34.9309 40.806 34.6384 40.8145 34.5307 40.8131C31.3783 40.8131 28.6417 39.7505 26.3209 37.6253C24.0002 35.5 22.8405 32.8258 22.8419 29.6025C22.8419 29.3192 22.9397 29.0712 23.1352 28.8587C23.3307 28.6462 23.5872 28.5399 23.9045 28.5399Z" fill="white" fill-opacity="0.22"/>
<path d="M24.4809 38.7177V33.3423L35.9746 21.8923L41.35 27.224L29.8563 38.7177H24.4809ZM7 36.9696V32.0749C7 31.0843 7.25522 30.1742 7.76566 29.3444C8.27611 28.5147 8.9532 27.8807 9.79695 27.4425C11.6033 26.5393 13.4388 25.8622 15.3034 25.4112C17.1681 24.9602 19.0618 24.7341 20.9847 24.7329C22.0627 24.7329 23.1261 24.7988 24.175 24.9305C25.2239 25.0622 26.2727 25.2731 27.3216 25.5633L20.9847 31.9001V36.9696H7ZM35.9746 28.9284L37.5916 27.224L35.9746 25.607L34.3139 27.2677L35.9746 28.9284ZM20.9847 22.9849C19.0618 22.9849 17.4157 22.3002 16.0464 20.9308C14.677 19.5615 13.9924 17.9154 13.9924 15.9925C13.9924 14.0696 14.677 12.4235 16.0464 11.0541C17.4157 9.68479 19.0618 9.00012 20.9847 9.00012C22.9076 9.00012 24.5538 9.68479 25.9231 11.0541C27.2924 12.4235 27.9771 14.0696 27.9771 15.9925C27.9771 17.9154 27.2924 19.5615 25.9231 20.9308C24.5538 22.3002 22.9076 22.9849 20.9847 22.9849Z" fill="white"/>
</svg>
